<svg xmlns="http://www.w3.org/2000/svg" xmlns:xlink="http://www.w3.org/1999/xlink" width="70" height="60" viewBox="0 0 70 60">
  <defs>
    <clipPath id="clip-Actividades-oficiales">
      <rect width="70" height="60"/>
    </clipPath>
  </defs>
  <g id="Actividades-oficiales" clip-path="url(#clip-Actividades-oficiales)">
    <g id="Grupo_109" data-name="Grupo 109" transform="translate(452 -1884)">
      <path id="Trazado_383" data-name="Trazado 383" d="M-441.827,1936.53h50.281v-41.136H-401.4v4.5h-5.173v-4.5H-426.4v4.5h-5.556v-4.5h-9.867Z" stroke="#000" stroke-width="1"/>
      <path id="Trazado_384" data-name="Trazado 384" d="M-440.371,1901.687h47.212V1934.8h-47.212Z" fill="#fff"/>
      <path id="Trazado_385" data-name="Trazado 385" d="M-429.853,1891.764h1.32v6.52h-1.32Z" stroke="#000" stroke-width="1"/>
      <path id="Trazado_386" data-name="Trazado 386" d="M-429.853,1891.764h1.32v6.52h-1.32Z" transform="translate(25.253)" stroke="#000" stroke-width="1"/>
      <path id="Trazado_387" data-name="Trazado 387" d="M-425.469,1905.8h5.438v5.438h-5.437Z" transform="translate(0 1)" fill="#75beea"/>
      <path id="Trazado_392" data-name="Trazado 392" d="M-425.469,1905.8h5.438v5.438h-5.437Z" transform="translate(0 7)" fill="#75beea"/>
      <path id="Trazado_397" data-name="Trazado 397" d="M-425.469,1905.8h5.438v5.438h-5.437Z" transform="translate(0 13)" fill="#75beea"/>
      <path id="Trazado_402" data-name="Trazado 402" d="M-425.469,1905.8h5.438v5.438h-5.437Z" transform="translate(-12 19)" fill="#75beea"/>
      <path id="Trazado_408" data-name="Trazado 408" d="M-425.469,1905.8h5.438v5.438h-5.437Z" transform="translate(-12 13)" fill="#75beea"/>
      <path id="Trazado_410" data-name="Trazado 410" d="M-425.469,1905.8h5.438v5.438h-5.437Z" transform="translate(-12 7)" fill="#75beea"/>
      <path id="Trazado_388" data-name="Trazado 388" d="M-425.469,1905.8h5.438v5.438h-5.437Z" transform="translate(6 1)" fill="#75beea"/>
      <path id="Trazado_393" data-name="Trazado 393" d="M-425.469,1905.8h5.438v5.438h-5.437Z" transform="translate(6 7)" fill="#75beea"/>
      <path id="Trazado_398" data-name="Trazado 398" d="M-425.469,1905.8h5.438v5.438h-5.437Z" transform="translate(6 13)" fill="#75beea"/>
      <path id="Trazado_403" data-name="Trazado 403" d="M-425.469,1905.8h5.438v5.438h-5.437Z" transform="translate(-6 19)" fill="#75beea"/>
      <path id="Trazado_407" data-name="Trazado 407" d="M-425.469,1905.8h5.438v5.438h-5.437Z" transform="translate(-6 13)" fill="#75beea"/>
      <path id="Trazado_409" data-name="Trazado 409" d="M-425.469,1905.8h5.438v5.438h-5.437Z" transform="translate(-6 7)" fill="#75beea"/>
      <path id="Trazado_389" data-name="Trazado 389" d="M-425.469,1905.8h5.438v5.438h-5.437Z" transform="translate(12 1)" fill="#75beea"/>
      <path id="Trazado_394" data-name="Trazado 394" d="M-425.469,1905.8h5.438v5.438h-5.437Z" transform="translate(12 7)" fill="#75beea"/>
      <path id="Trazado_399" data-name="Trazado 399" d="M-425.469,1905.8h5.438v5.438h-5.437Z" transform="translate(12 13)" fill="#75beea"/>
      <path id="Trazado_404" data-name="Trazado 404" d="M-425.469,1905.8h5.438v5.438h-5.437Z" transform="translate(0 19)" fill="#75beea"/>
      <path id="Trazado_390" data-name="Trazado 390" d="M-425.469,1905.8h5.438v5.438h-5.437Z" transform="translate(18 1)" fill="#75beea"/>
      <path id="Trazado_395" data-name="Trazado 395" d="M-425.469,1905.8h5.438v5.438h-5.437Z" transform="translate(18 7)" fill="#75beea"/>
      <path id="Trazado_400" data-name="Trazado 400" d="M-425.469,1905.8h5.438v5.438h-5.437Z" transform="translate(18 13)" fill="#75beea"/>
      <path id="Trazado_405" data-name="Trazado 405" d="M-425.469,1905.8h5.438v5.438h-5.437Z" transform="translate(6 19)" fill="#75beea"/>
      <path id="Trazado_391" data-name="Trazado 391" d="M-425.469,1905.8h5.438v5.438h-5.437Z" transform="translate(24 1)" fill="#ffcd35"/>
      <path id="Trazado_396" data-name="Trazado 396" d="M-425.469,1905.8h5.438v5.438h-5.437Z" transform="translate(24 7)" fill="#ffcd35"/>
      <path id="Trazado_401" data-name="Trazado 401" d="M-425.469,1905.8h5.438v5.438h-5.437Z" transform="translate(24 13)" fill="#ffcd35"/>
      <path id="Trazado_406" data-name="Trazado 406" d="M-425.469,1905.8h5.438v5.438h-5.437Z" transform="translate(12 19)" fill="#75beea"/>
      <g id="Rectángulo_77" data-name="Rectángulo 77" transform="translate(-405 1927)" fill="#fff" stroke="#000" stroke-width="1">
        <rect width="2" height="2" stroke="none"/>
        <rect x="0.5" y="0.5" width="1" height="1" fill="none"/>
      </g>
      <g id="Rectángulo_79" data-name="Rectángulo 79" transform="translate(-435 1908)" fill="#fff" stroke="#000" stroke-width="1">
        <rect width="2" height="2" stroke="none"/>
        <rect x="0.5" y="0.5" width="1" height="1" fill="none"/>
      </g>
      <g id="Rectángulo_76" data-name="Rectángulo 76" transform="translate(-400 1927)" fill="#fff" stroke="#000" stroke-width="1">
        <rect width="2" height="2" stroke="none"/>
        <rect x="0.5" y="0.5" width="1" height="1" fill="none"/>
      </g>
      <g id="Rectángulo_78" data-name="Rectángulo 78" transform="translate(-430 1908)" fill="#fff" stroke="#000" stroke-width="1">
        <rect width="2" height="2" stroke="none"/>
        <rect x="0.5" y="0.5" width="1" height="1" fill="none"/>
      </g>
      <path id="Trazado_411" data-name="Trazado 411" d="M-413.094,1907.188l2.25,2.219,2.453-2.219-2.453,2.219,2.453,2.438-2.453-2.437-2.25,2.438" fill="none" stroke="#e72933" stroke-width="1"/>
      <path id="Trazado_412" data-name="Trazado 412" d="M-413.094,1907.188l2.25,2.219,2.453-2.219-2.453,2.219,2.453,2.438-2.453-2.437-2.25,2.438" transform="translate(-18 12)" fill="none" stroke="#e72933" stroke-width="1"/>
    </g>
  </g>
</svg>
