<svg xmlns="http://www.w3.org/2000/svg" xmlns:xlink="http://www.w3.org/1999/xlink" width="70" height="60" viewBox="0 0 70 60">
  <defs>
    <clipPath id="clip-Inversión-infobras">
      <rect width="70" height="60"/>
    </clipPath>
  </defs>
  <g id="Inversión-infobras" clip-path="url(#clip-Inversión-infobras)">
    <g id="Grupo_104" data-name="Grupo 104" transform="translate(376 -1937)">
      <path id="Trazado_360" data-name="Trazado 360" d="M-361.107,1989.589h39.516v-5.866s-.665-1.909-3.679-3.579a47.113,47.113,0,0,0-8.379-3.1s-3.5,4.857-7.427,4.857-8.3-4.857-8.3-4.857a46.771,46.771,0,0,0-7.558,3.1,12.685,12.685,0,0,0-4.174,3.579Z" fill="#75beea" stroke="#000" stroke-width="1"/>
      <path id="Trazado_361" data-name="Trazado 361" d="M-347.112,1973.5l-2.107,3.621s4.321,4.745,8.206,4.779,7.333-4.642,7.333-4.642l-2-3.758-5.333,3.621v0Z" fill="#ffce36" stroke="#000" stroke-width="1"/>
      <path id="Trazado_362" data-name="Trazado 362" d="M-354.026,1978.766v10.994h3.158v-12.15a7.615,7.615,0,0,0-1.4.375C-353.055,1978.273-354.026,1978.766-354.026,1978.766Z" fill="#ed1d25"/>
      <path id="Trazado_363" data-name="Trazado 363" d="M-350.868,1978.766v10.994h-3.158v-12.15a7.615,7.615,0,0,1,1.4.375C-351.838,1978.273-350.868,1978.766-350.868,1978.766Z" transform="translate(22.226)" fill="#ed1d25"/>
      <path id="Trazado_364" data-name="Trazado 364" d="M-361.107,1989.589h39.516v-5.866s-.665-1.909-3.679-3.579a47.113,47.113,0,0,0-8.379-3.1s-3.5,4.857-7.427,4.857-8.3-4.857-8.3-4.857a46.771,46.771,0,0,0-7.558,3.1,12.685,12.685,0,0,0-4.174,3.579Z" fill="none" stroke="#000" stroke-width="1"/>
      <path id="Trazado_365" data-name="Trazado 365" d="M-345.41,1971.361v3.124l4.394,2.609,3.879-2.609v-3.124Z" fill="#fff" stroke="#000" stroke-width="1"/>
      <path id="Trazado_366" data-name="Trazado 366" d="M-349.219,1960.788v3.639s1.911,5.787,5.732,7.38a11.325,11.325,0,0,0,2.284.318,5.107,5.107,0,0,0,1.781-.318c4.281-1.323,6.268-7.38,6.268-7.38v-3.639Z" fill="#fff" stroke="#000" stroke-width="1"/>
      <g id="Rectángulo_68" data-name="Rectángulo 68" transform="translate(-354 1960)" fill="#fff" stroke="#000" stroke-width="1">
        <rect width="25" height="1" stroke="none"/>
        <rect x="0.5" y="0.5" width="24" fill="none"/>
      </g>
      <path id="Trazado_367" data-name="Trazado 367" d="M-351.613,1960.76v-5.1a3.857,3.857,0,0,1,.144-1.075,3.2,3.2,0,0,1,.513-1.3c1.035-1.856,4.213-6.747,8.292-6.747,1.3,0,1.339-.035,2.781,0,3.981.079,7.162,4.623,8.625,7.085a1.8,1.8,0,0,1,.32.913,10.874,10.874,0,0,1,.165,1.362v4.857Z" transform="translate(0 -0.26)" fill="#0078c1" stroke="#000" stroke-linecap="round" stroke-linejoin="bevel" stroke-width="1"/>
      <rect id="Rectángulo_69" data-name="Rectángulo 69" width="6" height="10" transform="translate(-344 1945)" fill="#ffcd36"/>
      <circle id="Elipse_16" data-name="Elipse 16" cx="3" cy="3" r="3" transform="translate(-344 1952)" fill="#fff"/>
    </g>
  </g>
</svg>
