<svg xmlns="http://www.w3.org/2000/svg" xmlns:xlink="http://www.w3.org/1999/xlink" width="70" height="60" viewBox="0 0 70 60">
  <defs>
    <clipPath id="clip-Participación-Ciudadana">
      <rect width="70" height="60"/>
    </clipPath>
  </defs>
  <g id="Participación-Ciudadana" clip-path="url(#clip-Participación-Ciudadana)">
    <g id="Grupo_105" data-name="Grupo 105" transform="translate(751 -899)">
      <circle id="Elipse_17" data-name="Elipse 17" cx="22" cy="22" r="22" transform="translate(-738 906)" fill="#ffcd35"/>
      <rect id="Rectángulo_70" data-name="Rectángulo 70" width="16" height="8" transform="translate(-723 944)" fill="#75beea"/>
      <path id="Trazado_368" data-name="Trazado 368" d="M-566.977,1617.274v-7.6h16.07v7.6" transform="translate(-156 -666)" fill="none" stroke="#000" stroke-width="1"/>
      <path id="Trazado_369" data-name="Trazado 369" d="M-570.773,1602.71l5.939,6.87h12.391v-2.815l2.928-5.69v-9.445s-.86-1.224-1.922-1.24a4.836,4.836,0,0,0-2.445,1.24v-1.521a3.451,3.451,0,0,0-2.117-1.187,4.1,4.1,0,0,0-2.281,1.188v-1.452a3.087,3.087,0,0,0-1.969-1.109,4.294,4.294,0,0,0-2.266,1.109v-7.2s-.75-2.345-2.187-2.158c-1.625-.156-2.313,2.158-2.313,2.158l.032,16.108v-2.675a2.685,2.685,0,0,0-1.875-.981,3.476,3.476,0,0,0-1.914.981Z" transform="translate(-156 -666)" fill="#fff" stroke="#000" stroke-width="1"/>
      <circle id="Elipse_18" data-name="Elipse 18" cx="1" cy="1" r="1" transform="translate(-714 945)" fill="#ff060b"/>
      <circle id="Elipse_19" data-name="Elipse 19" cx="1" cy="1" r="1" transform="translate(-711 945)" fill="#ff060b"/>
    </g>
  </g>
</svg>
