<svg xmlns="http://www.w3.org/2000/svg" xmlns:xlink="http://www.w3.org/1999/xlink" width="70" height="60" viewBox="0 0 70 60">
  <defs>
    <clipPath id="clip-Registro-Visitas">
      <rect width="70" height="60"/>
    </clipPath>
  </defs>
  <g id="Registro-Visitas" clip-path="url(#clip-Registro-Visitas)">
    <g id="Grupo_111" data-name="Grupo 111" transform="translate(-77 -1885)">
      <path id="Trazado_429" data-name="Trazado 429" d="M109.214,1895.293l-1.25,1.484.181,2.211,1.3,1.93-1.3,2.3-2.234,2.336-1.381,2.214-.1,11.971,2.5.268.577,16.407h31.751V1893.48l-26.882-.047" transform="translate(-9.996 -0.48)" fill="#fff"/>
      <path id="Trazado_428" data-name="Trazado 428" d="M97.505,1936.382v-17.5h10v17.5h-10" fill="#0078c1"/>
      <path id="Trazado_425" data-name="Trazado 425" d="M98.335,1903.345h8.47v13.515h-8.47Z" fill="#fff" stroke="#000" stroke-linecap="round" stroke-linejoin="round" stroke-width="1"/>
      <path id="Trazado_427" data-name="Trazado 427" d="M110.75,1918.883h-15.9v-11.361a8.212,8.212,0,0,1,1.334-2.437,8.514,8.514,0,0,1,2.2-1.74l4.293,4.756,4.177-4.756a8.188,8.188,0,0,1,3.887,4.177v11.361" fill="#75beea"/>
      <path id="Trazado_423" data-name="Trazado 423" d="M97.505,1935.452v-16.569H94.854v-11.361a8.212,8.212,0,0,1,1.334-2.437,8.514,8.514,0,0,1,2.2-1.74l4.293,4.756,4.177-4.756a8.188,8.188,0,0,1,3.887,4.177v11.361H107.5v16.569h21.755V1893.48H109.184" fill="none" stroke="#000" stroke-linecap="round" stroke-linejoin="round" stroke-width="1"/>
      <path id="Trazado_424" data-name="Trazado 424" d="M102.8,1935.452v-14.183" fill="none" stroke="#000" stroke-width="1"/>
      <path id="Trazado_426" data-name="Trazado 426" d="M120.786,1898.005l2.856,2.841-2.856,2.961,2.856-2.961H114.6" fill="none" stroke="#f0363b" stroke-linecap="round" stroke-linejoin="round" stroke-width="1"/>
      <g id="Elipse_23" data-name="Elipse 23" transform="translate(120 1913)" stroke="#000" stroke-width="1">
        <circle cx="2" cy="2" r="2" stroke="none"/>
        <circle cx="2" cy="2" r="1.5" fill="none"/>
      </g>
      <g id="Elipse_24" data-name="Elipse 24" transform="translate(98 1893)" fill="#ffcd36" stroke="#000" stroke-width="1">
        <circle cx="4.5" cy="4.5" r="4.5" stroke="none"/>
        <circle cx="4.5" cy="4.5" r="4" fill="none"/>
      </g>
    </g>
  </g>
</svg>
