<svg xmlns="http://www.w3.org/2000/svg" xmlns:xlink="http://www.w3.org/1999/xlink" width="70" height="60" viewBox="0 0 70 60">
  <defs>
    <clipPath id="clip-transparencia">
      <rect width="70" height="60"/>
    </clipPath>
  </defs>
  <g id="transparencia" clip-path="url(#clip-transparencia)">
    <g id="Grupo_112" data-name="Grupo 112" transform="translate(-103.611 -1.715)">
      <text id="PTE" transform="translate(124.145 34.104)" font-size="13" font-family="SegoeUI-Bold, Segoe UI" font-weight="700" letter-spacing="-0.084em"><tspan x="0" y="0">PTE</tspan></text>
      <path id="Icon_awesome-search-minus" data-name="Icon awesome-search-minus" d="M46.416,43.746,43.6,46.593a2.351,2.351,0,0,1-3.362.009l-6.329-6.024a2.408,2.408,0,0,1-.69-1.7l0-1.636A20.523,20.523,0,0,1-.054,20.87,20.878,20.878,0,0,1,20.628-.054,20.617,20.617,0,0,1,41.2,20.762a21.021,21.021,0,0,1-4.4,12.855l1.617,0a2.352,2.352,0,0,1,1.684.7l6.319,6.024A2.449,2.449,0,0,1,46.416,43.746ZM34.062,20.781A13.471,13.471,0,0,0,20.609,7.17,13.641,13.641,0,0,0,7.086,20.852,13.471,13.471,0,0,0,20.539,34.462,13.641,13.641,0,0,0,34.062,20.781Z" transform="matrix(0.978, -0.208, 0.208, 0.978, 110.651, 13.653)"/>
    </g>
  </g>
</svg>
