<svg id="_x33_0" enable-background="new 0 0 64 64" height="512" viewBox="0 0 64 64" width="512" xmlns="http://www.w3.org/2000/svg"><g><g><g><path d="m21 44h-6-2v-3.92c0-2.17.61-4.25 1.71-6.02 1.1-1.78 2.69-3.26 4.63-4.23 1.1-.55 2.28-.92 3.5-1.09l3.16-.45 1 6.71 2.38-1.43 1.62 2.43-2 13 3 4 3-4-2-13 1.62-2.43 2.38 1.43 1-6.71 3.16.45c1.22.17 2.4.54 3.5 1.09 1.94.97 3.53 2.45 4.63 4.23 1.1 1.77 1.71 3.85 1.71 6.02v3.92h-2-6v18h-22z" fill="#e6e9ed"/></g><g><path d="m33 36 2 13-3 4-3-4 2-13z" fill="#ed5565"/></g><g><path d="m32 32 2.62 1.57-1.62 2.43h-2l-1.62-2.43z" fill="#ed5565"/></g><g><path d="m28 28 4 4-2.62 1.57-2.38 1.43-1-6.71z" fill="#e6e9ed"/></g><g><path d="m34.62 33.57-2.62-1.57 4-4 2 .29-1 6.71z" fill="#e6e9ed"/></g><g><path d="m43 9c0 1-.25 2.2-.5 3.13-.25.94-.5 1.63-.5 1.63l-.01.01c-.53-.48-1.22-.77-1.99-.77h-1v-1c0-1.66-1.34-3-3-3-5 0-6 3-11 4h-1c-.77 0-1.47.29-2 .77l-.85-3.19c-.1-.39-.15-.78-.15-1.18 0-1.02.32-1.98.88-2.78s1.36-1.43 2.32-1.78l6.58-2.39c.81-.3 1.66-.45 2.52-.45 1.16 0 2.3.28 3.31.78 1.01.51 1.91 1.25 2.61 2.18l.78 1.04c.83 0 1.58.34 2.12.88s.88 1.29.88 2.12z" fill="#fcd770"/></g><g><path d="m15 44h6v18h-6z" fill="#f0d0b4"/></g><g><path d="m43 44h6v18h-6z" fill="#f0d0b4"/></g><g><path d="m38.92 19c.06-.33.08-.66.08-1v-5h1c.77 0 1.46.29 1.99.77.62.53 1.01 1.34 1.01 2.23 0 .83-.34 1.58-.88 2.12s-1.29.88-2.12.88h-1.07z" fill="#f0d0b4"/></g><g><path d="m35.07 24.29.93 3.71-4 4-4-4 .93-3.71c.92.46 1.96.71 3.07.71s2.15-.25 3.07-.71z" fill="#f0d0b4"/></g><g><path d="m39 13v5c0 .34-.02.67-.08 1-.21 1.54-.92 2.9-1.97 3.95-.55.55-1.18 1-1.88 1.34-.92.46-1.96.71-3.07.71s-2.15-.25-3.07-.71c-2.04-.99-3.53-2.95-3.85-5.29-.06-.33-.08-.66-.08-1v-5c5-1 6-4 11-4 1.66 0 3 1.34 3 3z" fill="#f0d0b4"/></g><g><path d="m25 18c0 .34.02.67.08 1h-.01-1.07c-.83 0-1.58-.34-2.12-.88s-.88-1.29-.88-2.12c0-.89.38-1.69 1-2.23.53-.48 1.23-.77 2-.77h1z" fill="#f0d0b4"/></g></g><g><path d="m7 15.414v27.586h2v-27.586l4.293 4.293 1.414-1.414-6.707-6.707-6.707 6.707 1.414 1.414z"/><path d="m59 45h2v2h-2z"/><path d="m57 47h2v2h-2z"/><path d="m55 15.414v27.586h2v-27.586l4.293 4.293 1.414-1.414-6.707-6.707-6.707 6.707 1.414 1.414z"/><circle cx="35" cy="16" r="1"/><circle cx="29" cy="16" r="1"/><path d="m35.789 19.658.105-.211-1.789-.895-.105.212c-.381.762-1.147 1.236-2 1.236s-1.619-.474-2-1.236l-.105-.211-1.789.895.105.211c.722 1.444 2.174 2.341 3.789 2.341s3.067-.897 3.789-2.342z"/><path d="m52 45v-4.916c0-4.751-2.64-9.021-6.889-11.146-1.203-.601-2.485-1.001-3.812-1.19l-4.492-.642-.582-2.325c1.715-1.073 2.991-2.773 3.511-4.78h.264c2.206 0 4-1.794 4-4 0-.933-.334-1.781-.871-2.462.306-.953.871-2.931.871-4.539 0-2.027-1.517-3.707-3.474-3.966l-.508-.676c-1.576-2.103-4.086-3.358-6.715-3.358-.981 0-1.947.17-2.869.506l-6.578 2.392c-2.306.837-3.856 3.05-3.856 5.504 0 .479.059.956.18 1.437l.716 2.67c-.552.685-.896 1.544-.896 2.491 0 2.206 1.794 4 4 4h.263c.519 2.007 1.796 3.708 3.511 4.78l-.582 2.325-4.491.642c-1.327.189-2.609.59-3.813 1.19-4.248 2.126-6.888 6.396-6.888 11.147v4.916h2v18h6 1 22 1 6v-18zm-15.137-15.867-.631 4.24-2.619-1.572 2.741-2.741zm-5.005 7.867h.284l1.805 11.736-1.947 2.597-1.947-2.597zm.607-2h-.93l-.74-1.111 1.205-.723 1.205.723zm7.535-17v-4c1.103 0 2 .897 2 2s-.897 2-2 2zm-15.461-12.224 6.578-2.392c.702-.254 1.438-.384 2.186-.384 2.002 0 3.915.956 5.116 2.558l1.081 1.442h.5c1.103 0 2 .897 2 2 0 1.045-.313 2.352-.578 3.273-.443-.17-.919-.273-1.422-.273 0-2.206-1.794-4-4-4-3.03 0-4.78 1.036-6.473 2.037-1.283.76-2.613 1.543-4.639 1.963h-.888c-.483 0-.941.099-1.37.257l-.515-1.92c-.076-.306-.115-.62-.115-.935 0-1.616 1.021-3.073 2.539-3.626zm-2.539 10.224c0-1.103.897-2 2-2v4c-1.103 0-2-.897-2-2zm4 2v-4.204c1.965-.51 3.327-1.316 4.546-2.037 1.595-.945 2.971-1.759 5.454-1.759 1.103 0 2 .897 2 2v6c0 3.309-2.691 6-6 6s-6-2.691-6-6zm6 8c.828 0 1.628-.127 2.379-.361l.513 2.055-2.892 2.892-2.893-2.893.513-2.055c.752.235 1.552.362 2.38.362zm-4.353 3.061 2.741 2.741-2.619 1.572-.632-4.24zm-11.647 31.939v-16h4v16zm26-22v22h-20v-22h-2v4h-6v-2.916c0-3.988 2.216-7.574 5.783-9.357 1.009-.504 2.086-.841 3.2-.999l2.173-.311 1.075 7.21 2.846-1.708.875 1.312-2.005 13.032 4.053 5.404 4.053-5.403-2.005-13.032.875-1.312 2.846 1.708 1.074-7.21 2.175.311c1.113.158 2.19.495 3.199.999 3.567 1.782 5.783 5.368 5.783 9.356v2.916h-6v-4zm6 22h-4v-16h4z"/><path d="m61 47h2v2h-2z"/><path d="m59 49h2v2h-2z"/><path d="m54 55h2v2h-2z"/><path d="m52 57h2v2h-2z"/><path d="m56 57h2v2h-2z"/><path d="m54 59h2v2h-2z"/><path d="m3 45h2v2h-2z"/><path d="m5 47h2v2h-2z"/><path d="m1 47h2v2h-2z"/><path d="m3 49h2v2h-2z"/><path d="m8 55h2v2h-2z"/><path d="m10 57h2v2h-2z"/><path d="m6 57h2v2h-2z"/><path d="m8 59h2v2h-2z"/></g></g></svg>