<svg xmlns="http://www.w3.org/2000/svg" xmlns:xlink="http://www.w3.org/1999/xlink" width="70" height="60" viewBox="0 0 70 60">
  <defs>
    <clipPath id="clip-funcionarios">
      <rect width="70" height="60"/>
    </clipPath>
  </defs>
  <g id="funcionarios" clip-path="url(#clip-funcionarios)">
    <g id="la-red" transform="translate(2 -53.5)">
      <path id="Trazado_38" data-name="Trazado 38" d="M24.638,159.632c-10.725,0-9.536,13.043-9.487,22.494a1.009,1.009,0,0,0,.495.863,18.1,18.1,0,0,0,17.985,0,1.009,1.009,0,0,0,.495-.863C34.174,172.675,35.363,159.632,24.638,159.632Z" transform="translate(-13.119 -88.797)" fill="#694b4b"/>
      <path id="Trazado_39" data-name="Trazado 39" d="M23.952,159.838c-9.975.559-8.844,13.226-8.8,22.467a1.009,1.009,0,0,0,.495.863,17.777,17.777,0,0,0,8.992,2.392l2.711-18.973" transform="translate(-13.124 -88.976)" fill="#5a4146"/>
      <path id="Trazado_40" data-name="Trazado 40" d="M44.795,159.632c-6.1,0-6.522,7.369-6.522,7.369,3.515-.593,5.675.889,9.232-.593l-2.711,18.973a17.777,17.777,0,0,0,8.992-2.392,1.009,1.009,0,0,0,.495-.863C54.331,172.675,55.52,159.632,44.795,159.632Z" transform="translate(-33.276 -88.797)" fill="#694b4b"/>
      <path id="Trazado_41" data-name="Trazado 41" d="M122.428,187.028c.042-8.122.919-18.887-5.638-21.758a6.02,6.02,0,0,0,.217,3.329c1.355,2.71,2.711,2.71,4.066,4.743,1.355,7.454-2.589,15.365-3.9,16.442h0a17.048,17.048,0,0,0,4.761-1.893A1.009,1.009,0,0,0,122.428,187.028Z" transform="translate(-101.422 -93.698)" fill="#785550"/>
      <path id="Trazado_42" data-name="Trazado 42" d="M21.787,311.645l-6.046-2.519a1.355,1.355,0,0,1-.834-1.251v-1.637H8.131v1.637a1.355,1.355,0,0,1-.834,1.251l-6.046,2.519A2.033,2.033,0,0,0,0,313.521v2.711a1.355,1.355,0,0,0,1.355,1.355H21.683a1.355,1.355,0,0,0,1.355-1.355v-2.711A2.033,2.033,0,0,0,21.787,311.645Z" transform="translate(0 -216.259)" fill="#e6af78"/>
      <path id="Trazado_43" data-name="Trazado 43" d="M21.787,331.433,15.941,329l-4.422,1.909L7.1,329l-5.846,2.436A2.033,2.033,0,0,0,0,333.309v2.71a1.355,1.355,0,0,0,1.355,1.355H21.683a1.355,1.355,0,0,0,1.355-1.355v-2.71A2.033,2.033,0,0,0,21.787,331.433Z" transform="translate(0 -236.048)" fill="#eff2fa"/>
      <path id="Trazado_44" data-name="Trazado 44" d="M57.21,306.237H50.434v1.637a1.355,1.355,0,0,1-.834,1.251l-.944.394C55.882,311.362,57.21,306.237,57.21,306.237Z" transform="translate(-42.303 -216.259)" fill="#d29b6e"/>
      <g id="Grupo_2" data-name="Grupo 2" transform="translate(0 91.841)">
        <path id="Trazado_45" data-name="Trazado 45" d="M3.3,353.323.583,351.16A2.028,2.028,0,0,0,0,352.579v2.711a1.355,1.355,0,0,0,1.355,1.355H4.066v-1.733A2.033,2.033,0,0,0,3.3,353.323Z" transform="translate(0 -347.158)" fill="#e4eaf6"/>
        <path id="Trazado_46" data-name="Trazado 46" d="M149.373,355.345v-2.711a2.028,2.028,0,0,0-.574-1.41l-2.729,2.155a2.033,2.033,0,0,0-.763,1.587V356.7h2.711A1.355,1.355,0,0,0,149.373,355.345Z" transform="translate(-126.334 -347.214)" fill="#e4eaf6"/>
        <path id="Trazado_47" data-name="Trazado 47" d="M83.812,348.74h-.2a.576.576,0,0,1-.576-.576v-4.537h1.355v4.537A.576.576,0,0,1,83.812,348.74Z" transform="translate(-72.191 -340.608)" fill="#e4eaf6"/>
        <path id="Trazado_48" data-name="Trazado 48" d="M52.127,323.526l-3.878-2.909a.542.542,0,0,0-.776.133l-.766,1.149,2.378,3.329a.542.542,0,0,0,.78.108Z" transform="translate(-40.608 -320.509)" fill="#e4eaf6"/>
        <path id="Trazado_49" data-name="Trazado 49" d="M88.222,323.526l3.878-2.909a.542.542,0,0,1,.776.133l.766,1.149-2.378,3.329a.542.542,0,0,1-.78.108Z" transform="translate(-76.703 -320.509)" fill="#e4eaf6"/>
      </g>
      <path id="Trazado_50" data-name="Trazado 50" d="M47.337,206.339c-3.388,3.388-10.037.677-10.037,6.1l.421,3.993a2.711,2.711,0,0,0,1.383,2.124l3.858,2.143a2.033,2.033,0,0,0,1.974,0l3.858-2.143a2.71,2.71,0,0,0,1.383-2.124l.486-4.742a7.476,7.476,0,0,0,.031-1.014C50.44,208.949,48.014,207.694,47.337,206.339Z" transform="translate(-32.43 -129.405)" fill="#f0c087"/>
      <path id="Trazado_51" data-name="Trazado 51" d="M37.3,212.435l.421,3.993a2.711,2.711,0,0,0,1.383,2.124l3.858,2.143a2.024,2.024,0,0,0,1.38.206h0s-1.945-.59-3.1-3.723c-.355-.96-.847-6.042-.423-6.663.837-1.228,5.505-1.355,6.885-3.633q-.1-.127-.189-.254l-.015-.021a2.575,2.575,0,0,1-.16-.271C43.949,209.724,37.3,207.014,37.3,212.435Z" transform="translate(-32.43 -129.402)" fill="#e6af78"/>
      <path id="Trazado_52" data-name="Trazado 52" d="M106.7,382.783h-1.762a1.152,1.152,0,0,0-1.152,1.152v.2h4.066v-.2A1.152,1.152,0,0,0,106.7,382.783Z" transform="translate(-90.239 -282.811)" fill="#e4eaf6"/>
      <path id="Trazado_53" data-name="Trazado 53" d="M379.057,298.743v-3.721h-9.57v3.721L374.272,303Z" transform="translate(-321.243 -206.509)" fill="#e6af78"/>
      <path id="Trazado_54" data-name="Trazado 54" d="M326.273,324.809l-6.579-1.548a1.057,1.057,0,0,1-.276-.111l-5.329,3.108L308.969,323a1.059,1.059,0,0,1-.484.262l-6.579,1.548a2.126,2.126,0,0,0-1.64,2.07v4.164a1.063,1.063,0,0,0,1.063,1.063h25.52a1.063,1.063,0,0,0,1.063-1.063V326.88A2.127,2.127,0,0,0,326.273,324.809Z" transform="translate(-261.061 -230.834)" fill="#eff2fa"/>
      <path id="Trazado_55" data-name="Trazado 55" d="M369.487,295.022v3.927c6.028,2.172,9.57-3.264,9.57-3.264v-.663Z" transform="translate(-321.243 -206.509)" fill="#d29b6e"/>
      <path id="Trazado_56" data-name="Trazado 56" d="M353.2,201.37l.463,10.193a3.19,3.19,0,0,0,1.273,2.407l2.2,1.649a3.19,3.19,0,0,0,1.914.638h2.127a3.19,3.19,0,0,0,1.914-.638l2.2-1.649a3.19,3.19,0,0,0,1.273-2.407l.463-10.193Z" transform="translate(-307.083 -125.085)" fill="#f0c087"/>
      <path id="Trazado_57" data-name="Trazado 57" d="M358.517,203.5c2.127,0,5.317-.532,6.073-2.127H353.2l.463,10.193a3.19,3.19,0,0,0,1.273,2.407l2.2,1.649a3.19,3.19,0,0,0,1.914.638h1.063c-1.063,0-3.19-2.127-3.19-4.785v-6.38A1.7,1.7,0,0,1,358.517,203.5Z" transform="translate(-307.083 -125.085)" fill="#e6af78"/>
      <path id="Trazado_58" data-name="Trazado 58" d="M476.236,345.712l3.445-3.095a2.123,2.123,0,0,1,.458,1.318V348.1a1.063,1.063,0,0,1-1.063,1.063h-3.722v-1.473A2.658,2.658,0,0,1,476.236,345.712Z" transform="translate(-413.287 -247.889)" fill="#e4eaf6"/>
      <path id="Trazado_59" data-name="Trazado 59" d="M398.611,360.884h-2.658l.332-4.785h1.994Z" transform="translate(-344.253 -259.611)" fill="#5b5d6e"/>
      <path id="Trazado_60" data-name="Trazado 60" d="M398.611,347.955h-2.658v.307a1.288,1.288,0,0,0,1.288,1.288h.083a1.288,1.288,0,0,0,1.288-1.288v-.307Z" transform="translate(-344.253 -252.53)" fill="#515262"/>
      <g id="Grupo_3" data-name="Grupo 3" transform="translate(46.649 90.915)">
        <path id="Trazado_61" data-name="Trazado 61" d="M358.79,313.551l4.86,4.374a18.331,18.331,0,0,0-3.04,2.072.682.682,0,0,1-1.056-.239l-2.283-5.023.722-1.083A.532.532,0,0,1,358.79,313.551Z" transform="translate(-357.27 -313.414)" fill="#e4eaf6"/>
        <path id="Trazado_62" data-name="Trazado 62" d="M410.993,313.551l-4.86,4.374a18.33,18.33,0,0,1,3.04,2.072.682.682,0,0,0,1.056-.239l2.283-5.023-.722-1.083A.532.532,0,0,0,410.993,313.551Z" transform="translate(-399.753 -313.414)" fill="#e4eaf6"/>
      </g>
      <path id="Trazado_63" data-name="Trazado 63" d="M430.818,172.195l.5,3.522c2.275.455,2.6,4.025,2.65,5.045a1.049,1.049,0,0,0,.168.52l.868,1.347a5.092,5.092,0,0,1,1.063-3.721S436.533,170.068,430.818,172.195Z" transform="translate(-374.566 -99.432)" fill="#785550"/>
      <path id="Trazado_64" data-name="Trazado 64" d="M452.5,243.456l-.6,2.4a.639.639,0,0,1-.62.484h0a.639.639,0,0,1-.634-.56l-.307-2.456a1.1,1.1,0,0,1,1.092-1.237h0A1.1,1.1,0,0,1,452.5,243.456Z" transform="translate(-391.531 -160.487)" fill="#f0c087"/>
      <path id="Trazado_65" data-name="Trazado 65" d="M342.76,157.943l.786.537c-3.555,2.625-2.891,7.128-2.891,7.128,1.063,1.063,1.063,3.721,1.063,3.721l1.063-1.063s-.41-3.072,1.6-4.253c1.861-1.1,3.489-.532,5.15-.532,4.453,0,5.7-1.678,5.483-3.722-.112-1.057-1.728-3.26-5.848-3.19A17.9,17.9,0,0,0,342.76,157.943Z" transform="translate(-296.133 -86.133)" fill="#694b4b"/>
      <path id="Trazado_66" data-name="Trazado 66" d="M342.45,175.749a5.841,5.841,0,0,1,1.1-4.536c-3.555,2.625-2.891,7.128-2.891,7.128,1.063,1.063,1.063,3.721,1.063,3.721L342.782,181s-.41-3.072,1.595-4.253c1.861-1.1,3.489-.532,5.15-.532a13.075,13.075,0,0,0,1.917-.132C348.016,176.2,345.994,173.6,342.45,175.749Z" transform="translate(-296.133 -98.866)" fill="#5a4146"/>
      <path id="Trazado_67" data-name="Trazado 67" d="M345.089,243.456l.6,2.4a.639.639,0,0,0,.62.484h0a.639.639,0,0,0,.634-.56l.307-2.456a1.1,1.1,0,0,0-1.092-1.237h0A1.1,1.1,0,0,0,345.089,243.456Z" transform="translate(-300.001 -160.487)" fill="#e6af78"/>
      <path id="Trazado_68" data-name="Trazado 68" d="M430.213,384.6h-2.658a1.063,1.063,0,0,0-1.063,1.063h4.785A1.063,1.063,0,0,0,430.213,384.6Z" transform="translate(-370.804 -284.392)" fill="#e4eaf6"/>
      <path id="Trazado_69" data-name="Trazado 69" d="M148.062,57.5c-18.233,0-16.211,22.173-16.128,38.24a1.715,1.715,0,0,0,.841,1.467,30.774,30.774,0,0,0,30.574,0,1.716,1.716,0,0,0,.841-1.467C164.273,79.672,166.295,57.5,148.062,57.5Z" transform="translate(-114.616)" fill="#694b4b"/>
      <path id="Trazado_70" data-name="Trazado 70" d="M146.895,57.849c-16.957.951-15.035,22.484-14.953,38.194a1.715,1.715,0,0,0,.841,1.467,30.221,30.221,0,0,0,15.287,4.066l4.608-32.254" transform="translate(-114.624 -0.303)" fill="#5a4146"/>
      <path id="Trazado_71" data-name="Trazado 71" d="M182.328,57.5c-10.367,0-11.087,12.527-11.087,12.527,5.976-1.008,9.647,1.512,15.695-1.008l-4.608,32.254a30.221,30.221,0,0,0,15.287-4.066,1.716,1.716,0,0,0,.841-1.467C198.54,79.672,200.561,57.5,182.328,57.5Z" transform="translate(-148.882)" fill="#694b4b"/>
      <path id="Trazado_72" data-name="Trazado 72" d="M314.307,104.075c.072-13.807,1.562-32.108-9.585-36.989-.194,1.01-.546,3.83.369,5.66,2.3,4.608,4.608,4.608,6.911,8.063,2.3,12.671-4.4,26.12-6.629,27.951h0a28.978,28.978,0,0,0,8.093-3.218A1.716,1.716,0,0,0,314.307,104.075Z" transform="translate(-264.733 -8.334)" fill="#785550"/>
      <path id="Trazado_73" data-name="Trazado 73" d="M143.216,315.921l-10.279-4.283a2.3,2.3,0,0,1-1.418-2.127v-2.784H120v2.784a2.3,2.3,0,0,1-1.418,2.127L108.3,315.921a3.456,3.456,0,0,0-2.127,3.19v4.608a2.3,2.3,0,0,0,2.3,2.3h34.558a2.3,2.3,0,0,0,2.3-2.3v-4.608A3.455,3.455,0,0,0,143.216,315.921Z" transform="translate(-92.313 -216.686)" fill="#e6af78"/>
      <path id="Trazado_74" data-name="Trazado 74" d="M143.216,349.564l-9.938-4.141-7.518,3.245-7.518-3.245-9.938,4.141a3.456,3.456,0,0,0-2.127,3.19v4.608a2.3,2.3,0,0,0,2.3,2.3h34.558a2.3,2.3,0,0,0,2.3-2.3v-4.608A3.455,3.455,0,0,0,143.216,349.564Z" transform="translate(-92.313 -250.329)" fill="#b4e1fa"/>
      <path id="Trazado_75" data-name="Trazado 75" d="M203.433,306.728H191.914v2.784a2.3,2.3,0,0,1-1.418,2.127l-1.605.669C201.176,315.44,203.433,306.728,203.433,306.728Z" transform="translate(-164.228 -216.686)" fill="#d29b6e"/>
      <g id="Grupo_4" data-name="Grupo 4" transform="translate(13.864 93.209)">
        <path id="Trazado_76" data-name="Trazado 76" d="M111.793,386.776,107.17,383.1a3.448,3.448,0,0,0-.991,2.411v4.608a2.3,2.3,0,0,0,2.3,2.3h4.608v-2.947A3.457,3.457,0,0,0,111.793,386.776Z" transform="translate(-106.179 -376.294)" fill="#a0d2f0"/>
        <path id="Trazado_77" data-name="Trazado 77" d="M360.111,390.213v-4.608a3.448,3.448,0,0,0-.976-2.4l-4.639,3.663a3.456,3.456,0,0,0-1.3,2.7v2.947h4.608A2.3,2.3,0,0,0,360.111,390.213Z" transform="translate(-320.946 -376.39)" fill="#a0d2f0"/>
        <path id="Trazado_78" data-name="Trazado 78" d="M248.485,378.983h0a1.152,1.152,0,0,1-1.152-1.152v-7.539h2.3v7.539A1.152,1.152,0,0,1,248.485,378.983Z" transform="translate(-228.903 -365.16)" fill="#a0d2f0"/>
        <path id="Trazado_79" data-name="Trazado 79" d="M194.792,336.118l-6.593-4.945a.922.922,0,0,0-1.32.226l-1.3,1.954,4.042,5.659a.922.922,0,0,0,1.326.184Z" transform="translate(-175.21 -330.989)" fill="#a0d2f0"/>
        <path id="Trazado_80" data-name="Trazado 80" d="M256.155,336.118l6.593-4.945a.922.922,0,0,1,1.32.226l1.3,1.954-4.042,5.659A.922.922,0,0,1,260,339.2Z" transform="translate(-236.573 -330.989)" fill="#a0d2f0"/>
      </g>
      <path id="Trazado_81" data-name="Trazado 81" d="M186.65,136.9c-5.76,5.76-17.063,1.152-17.063,10.367l.715,6.788a4.607,4.607,0,0,0,2.351,3.611l6.559,3.644a3.456,3.456,0,0,0,3.357,0l6.559-3.644a4.608,4.608,0,0,0,2.351-3.611l.826-8.062a12.7,12.7,0,0,0,.052-1.725C191.925,141.337,187.8,139.2,186.65,136.9Z" transform="translate(-147.444 -69.033)" fill="#f0c087"/>
      <path id="Trazado_82" data-name="Trazado 82" d="M169.587,147.267l.715,6.788a4.607,4.607,0,0,0,2.351,3.611l6.559,3.644a3.441,3.441,0,0,0,2.345.351h0s-3.307-1-5.275-6.33c-.6-1.632-1.44-10.271-.72-11.327,1.423-2.087,9.359-2.3,11.7-6.176q-.174-.216-.321-.432l-.025-.035a4.355,4.355,0,0,1-.271-.461C180.89,142.66,169.587,138.052,169.587,147.267Z" transform="translate(-147.444 -69.033)" fill="#e6af78"/>
      <path id="Trazado_83" data-name="Trazado 83" d="M288.382,436.856h-4.608a1.152,1.152,0,0,0-1.152,1.152v1.152h6.911v-1.152A1.152,1.152,0,0,0,288.382,436.856Z" transform="translate(-245.72 -329.823)" fill="#a0d2f0"/>
    </g>
  </g>
</svg>
