<svg xmlns="http://www.w3.org/2000/svg" xmlns:xlink="http://www.w3.org/1999/xlink" width="70" height="60" viewBox="0 0 70 60">
  <defs>
    <clipPath id="clip-funcionarios_2">
      <rect width="70" height="60"/>
    </clipPath>
  </defs>
  <g id="funcionarios_2" data-name="funcionarios – 2" clip-path="url(#clip-funcionarios_2)">
    <g id="presupuesto_3_" data-name="presupuesto (3)" transform="translate(8.499 2.824)">
      <path id="Trazado_266" data-name="Trazado 266" d="M59.347,33.149A25.692,25.692,0,1,1,33.654,7.457,25.692,25.692,0,0,1,59.347,33.149Zm0,0" transform="translate(-6.669 -6.665)" fill="#ff8b00"/>
      <path id="Trazado_267" data-name="Trazado 267" d="M249.988,7.457V58.842a25.692,25.692,0,0,0,0-51.385Zm0,0" transform="translate(-223.003 -6.665)" fill="#ed500a"/>
      <path id="Trazado_268" data-name="Trazado 268" d="M11.951,119.9a25.695,25.695,0,1,0,43.422,27.484Zm0,0" transform="translate(-6.668 -107.173)" fill="#727070"/>
      <path id="Trazado_269" data-name="Trazado 269" d="M33.66,133.644,11.951,119.9a25.7,25.7,0,0,0,.3,27.97Zm0,0" transform="translate(-6.668 -107.174)" fill="#ffa300"/>
      <path id="Trazado_270" data-name="Trazado 270" d="M11.951,119.9a25.746,25.746,0,0,0-3.417,19.169l25.131-5.425Zm0,0" transform="translate(-6.668 -107.173)" fill="#ffe3dc"/>
      <path id="Trazado_271" data-name="Trazado 271" d="M11.951,119.9a25.57,25.57,0,0,0-3.99,13.756H33.684Zm0,0" transform="translate(-6.668 -107.173)" fill="#ffc50d"/>
      <path id="Trazado_272" data-name="Trazado 272" d="M252.415,8.539a25.7,25.7,0,0,1-2.426,50v1.275a25.692,25.692,0,0,0,2.426-51.27Zm0,0" transform="translate(-223.004 -7.632)" fill="#db3317"/>
      <path id="Trazado_273" data-name="Trazado 273" d="M208.707,356.563a25.687,25.687,0,0,1-22.6,13.464c-.819,0-1.628-.04-2.427-.115a25.731,25.731,0,0,0,28.759-10.988Zm0,0" transform="translate(-163.733 -318.712)" fill="#5c5c5c"/>
      <g id="Grupo_58" data-name="Grupo 58" transform="translate(20.226 38.962)">
        <path id="Trazado_274" data-name="Trazado 274" d="M195.559,473.814h-8.314a.928.928,0,0,1-.928-.928v-2.721h10.171v2.721A.928.928,0,0,1,195.559,473.814Zm0,0" transform="translate(-186.316 -459.215)" fill="#ffc50d"/>
        <path id="Trazado_275" data-name="Trazado 275" d="M186.313,435.785h10.171v3.649H186.313Zm0,0" transform="translate(-186.313 -428.486)" fill="#ffc50d"/>
        <path id="Trazado_276" data-name="Trazado 276" d="M186.313,401.4h10.171v3.65H186.313Zm0,0" transform="translate(-186.313 -397.753)" fill="#ffc50d"/>
        <path id="Trazado_277" data-name="Trazado 277" d="M196.484,370.673H186.313v-2.721a.929.929,0,0,1,.929-.928h8.314a.929.929,0,0,1,.929.928Zm0,0" transform="translate(-186.313 -367.023)" fill="#ffc50d"/>
      </g>
      <path id="Trazado_278" data-name="Trazado 278" d="M193.732,470.164v1.555a.958.958,0,0,1-.957.957h-6.462v.09a1.047,1.047,0,0,0,1.047,1.047h8.078a1.047,1.047,0,0,0,1.047-1.047v-2.6Zm0,0" transform="translate(-166.087 -420.253)" fill="#ffa300"/>
      <path id="Trazado_279" data-name="Trazado 279" d="M193.732,435.785v1.555a.958.958,0,0,1-.957.957h-6.462v1.137h10.171v-3.65Zm0,0" transform="translate(-166.087 -389.524)" fill="#ffa300"/>
      <path id="Trazado_280" data-name="Trazado 280" d="M193.732,401.4v1.556a.957.957,0,0,1-.957.957h-6.462v1.137h10.171V401.4h-2.752Zm0,0" transform="translate(-166.087 -358.791)" fill="#ffa300"/>
      <path id="Trazado_281" data-name="Trazado 281" d="M387.184,473.814H378.87a.928.928,0,0,1-.928-.928v-2.721h10.171v2.721A.928.928,0,0,1,387.184,473.814Zm0,0" transform="translate(-337.373 -420.253)" fill="#ffc50d"/>
      <path id="Trazado_282" data-name="Trazado 282" d="M377.941,435.785h10.171v3.649H377.941Zm0,0" transform="translate(-337.373 -389.524)" fill="#ffc50d"/>
      <path id="Trazado_283" data-name="Trazado 283" d="M385.36,470.164v1.555a.957.957,0,0,1-.957.957h-6.461v.09a1.047,1.047,0,0,0,1.047,1.047h8.078a1.047,1.047,0,0,0,1.047-1.047v-2.6Zm0,0" transform="translate(-337.373 -420.253)" fill="#ffa300"/>
      <path id="Trazado_284" data-name="Trazado 284" d="M385.36,435.785v1.555a.957.957,0,0,1-.957.957h-6.461v1.137h10.171v-3.65Zm0,0" transform="translate(-337.373 -389.524)" fill="#ffa300"/>
      <path id="Trazado_285" data-name="Trazado 285" d="M195.438,367.023h-1.706v1.556a.958.958,0,0,1-.957.957h-6.462v1.137h10.171v-2.6A1.047,1.047,0,0,0,195.438,367.023Zm0,0" transform="translate(-166.087 -328.061)" fill="#ffa300"/>
      <path id="Trazado_286" data-name="Trazado 286" d="M388.113,405.052H377.942v-2.721a.928.928,0,0,1,.928-.928h8.314a.929.929,0,0,1,.928.928Zm0,0" transform="translate(-337.373 -358.791)" fill="#ffc50d"/>
      <path id="Trazado_287" data-name="Trazado 287" d="M387.066,401.4h-1.706v1.556a.957.957,0,0,1-.957.957h-6.461v1.137h10.171v-2.6a1.047,1.047,0,0,0-1.047-1.047Zm0,0" transform="translate(-337.374 -358.791)" fill="#ffa300"/>
      <path id="Trazado_288" data-name="Trazado 288" d="M291.371,473.814h-8.314a.928.928,0,0,1-.928-.928v-2.721H292.3v2.721A.928.928,0,0,1,291.371,473.814Zm0,0" transform="translate(-251.731 -420.253)" fill="#ffc50d"/>
      <path id="Trazado_289" data-name="Trazado 289" d="M282.129,435.785H292.3v3.649H282.129Zm0,0" transform="translate(-251.732 -389.524)" fill="#ffc50d"/>
      <path id="Trazado_290" data-name="Trazado 290" d="M282.129,401.4H292.3v3.65H282.129Zm0,0" transform="translate(-251.732 -358.791)" fill="#ffc50d"/>
      <path id="Trazado_291" data-name="Trazado 291" d="M289.548,470.164v1.555a.958.958,0,0,1-.957.957h-6.461v.09a1.047,1.047,0,0,0,1.047,1.047h8.078a1.047,1.047,0,0,0,1.047-1.047v-2.6Zm0,0" transform="translate(-251.732 -420.253)" fill="#ffa300"/>
      <path id="Trazado_292" data-name="Trazado 292" d="M289.548,435.785v1.555a.958.958,0,0,1-.957.957h-6.461v1.137H292.3v-3.65Zm0,0" transform="translate(-251.732 -389.524)" fill="#ffa300"/>
      <path id="Trazado_293" data-name="Trazado 293" d="M289.548,401.4v1.556a.957.957,0,0,1-.957.957h-6.461v1.137H292.3V401.4h-2.752Zm0,0" transform="translate(-251.732 -358.791)" fill="#ffa300"/>
      <path id="Trazado_294" data-name="Trazado 294" d="M282.129,367.023H292.3v3.65H282.129Zm0,0" transform="translate(-251.732 -328.061)" fill="#ffc50d"/>
      <path id="Trazado_295" data-name="Trazado 295" d="M289.548,367.023v1.556a.957.957,0,0,1-.957.957h-6.461v1.137H292.3v-3.65Zm0,0" transform="translate(-251.732 -328.061)" fill="#ffa300"/>
      <path id="Trazado_296" data-name="Trazado 296" d="M282.129,332.645H292.3v3.649H282.129Zm0,0" transform="translate(-251.732 -297.333)" fill="#ffc50d"/>
      <path id="Trazado_297" data-name="Trazado 297" d="M292.3,301.912H282.129v-2.721a.929.929,0,0,1,.928-.929h8.314a.929.929,0,0,1,.928.929Zm0,0" transform="translate(-251.731 -266.6)" fill="#ffc50d"/>
      <path id="Trazado_298" data-name="Trazado 298" d="M289.548,332.645V334.2a.958.958,0,0,1-.957.957h-6.461v1.137H292.3v-3.649Zm0,0" transform="translate(-251.732 -297.333)" fill="#ffa300"/>
      <path id="Trazado_299" data-name="Trazado 299" d="M291.253,298.262h-1.706v1.556a.957.957,0,0,1-.957.957h-6.461v1.137H292.3v-2.6A1.047,1.047,0,0,0,291.253,298.262Zm0,0" transform="translate(-251.732 -266.6)" fill="#ffa300"/>
      <path id="Trazado_300" data-name="Trazado 300" d="M49.816,41.82H48.578c-.342.482.625-.859.826-1.237A26.483,26.483,0,0,0,45.712,7.757a26.487,26.487,0,0,0-34.64-2.444.792.792,0,1,0,.952,1.265A24.662,24.662,0,0,1,26.194,1.6V25.028L6.383,12.488a25.157,25.157,0,0,1,3-3.62.792.792,0,0,0-1.119-1.12A26.282,26.282,0,0,0,.609,24.086a26.577,26.577,0,0,0-.036,4.368A26.191,26.191,0,0,0,6,42.644a26.674,26.674,0,0,0,13.434,9.231v.762a1.717,1.717,0,0,0,1.715,1.715h8.325a1.7,1.7,0,0,0,.923-.272,1.7,1.7,0,0,0,.923.272h8.325a1.705,1.705,0,0,0,.923-.272,1.7,1.7,0,0,0,.923.272h8.325a1.716,1.716,0,0,0,1.714-1.715v-9.1a1.716,1.716,0,0,0-1.714-1.714Zm-25.392,0H21.017V39.885a.132.132,0,0,1,.132-.131h8.325a.131.131,0,0,1,.131.131V41.82H27.8a.791.791,0,1,0,0,1.583h1.8V45.47H21.017V43.4h3.407a.791.791,0,1,0,0-1.583Zm6.765-1.935v-.131h8.588V41.82H31.188Zm8.588-1.715H31.188V36.1h8.588ZM31.188,43.4h8.588V45.47H31.188Zm8.588-8.882H31.188V32.586a.132.132,0,0,1,.132-.132h8.325a.132.132,0,0,1,.132.132ZM21.017,47.052h8.588v2.067H21.017Zm10.171,0h8.588v2.067H31.188Zm10.171,0h8.588v2.067H41.36Zm8.588-3.518V45.47H41.36V43.534a.131.131,0,0,1,.131-.131h8.325a.131.131,0,0,1,.131.131ZM41.491,41.82c-.044,0-.088,0-.131.007V36.5L47.6,40.451q-.474.7-1,1.369ZM2.134,28.053c-.017-.259-.027-.518-.036-.777H19.525L2.491,30.953a24.758,24.758,0,0,1-.357-2.9ZM2.826,32.5,23.06,28.132,5.826,39.586a24.963,24.963,0,0,1-3-7.086ZM5.538,13.827,24.285,25.693H2.1q.021-.7.082-1.39A24.794,24.794,0,0,1,5.538,13.827ZM6.7,40.9,27,27.413,30.14,29.4a.791.791,0,1,0,.847-1.337l-3.21-2.032V1.6A24.9,24.9,0,0,1,48.446,39.112L41.36,34.627V32.586a1.716,1.716,0,0,0-1.715-1.715H31.32a1.717,1.717,0,0,0-1.715,1.715v5.591c-.044,0-.087-.007-.131-.007H21.149a1.717,1.717,0,0,0-1.715,1.715V50.219A24.867,24.867,0,0,1,6.7,40.9ZM29.474,52.769H21.149a.132.132,0,0,1-.132-.131V50.7h8.588v1.935a.132.132,0,0,1-.131.131Zm10.171,0H31.32a.132.132,0,0,1-.132-.131V50.7h8.588v1.935a.132.132,0,0,1-.132.131Zm10.3-.131a.132.132,0,0,1-.131.132H41.491a.132.132,0,0,1-.131-.132V50.7h8.588Zm0,0"/>
    </g>
  </g>
</svg>
