<svg xmlns="http://www.w3.org/2000/svg" xmlns:xlink="http://www.w3.org/1999/xlink" width="70" height="60" viewBox="0 0 70 60">
  <defs>
    <clipPath id="clip-informacion_1">
      <rect width="70" height="60"/>
    </clipPath>
  </defs>
  <g id="informacion_1" data-name="informacion – 1" clip-path="url(#clip-informacion_1)">
    <g id="carpeta" transform="translate(-11.395 0)">
      <g id="Grupo_38" data-name="Grupo 38" transform="translate(19.147 0.879)">
        <g id="Grupo_36" data-name="Grupo 36" transform="translate(5.097)">
          <path id="Trazado_140" data-name="Trazado 140" d="M106.018,9.26h-2.629a1.76,1.76,0,0,0-1.76-1.76h-30.6a1.76,1.76,0,0,0-1.76,1.76V56.024a1.76,1.76,0,0,0,1.76,1.76c33.36,0,30.76.1,31.335-.16a1.766,1.766,0,0,0,.943-1.058h2.715V9.26Z" transform="translate(-69.266 -7.5)" fill="#60b7ff"/>
        </g>
        <path id="Trazado_141" data-name="Trazado 141" d="M349.091,7.5h-3.658a1.76,1.76,0,0,1,1.76,1.76V56.024a1.76,1.76,0,0,1-1.76,1.76h3.658a1.76,1.76,0,0,0,1.76-1.76V9.26a1.76,1.76,0,0,0-1.76-1.76Z" transform="translate(-307.972 -7.5)" fill="#26a6fe"/>
        <path id="Trazado_142" data-name="Trazado 142" d="M127.788,49.133l-8.127-8.127H95.193a2.432,2.432,0,0,0-2.432,2.432V86.926a2.432,2.432,0,0,0,.041.437h33.226a1.76,1.76,0,0,0,1.76-1.76Z" transform="translate(-84.91 -37.08)" fill="#26a6fe"/>
        <path id="Trazado_143" data-name="Trazado 143" d="M155.721,49.586,151.6,47.011l-3.56-6.005H123.568a2.432,2.432,0,0,0-2.432,2.432V86.926a2.432,2.432,0,0,0,2.432,2.432h32.1l.047,0V49.586Z" transform="translate(-109.96 -37.08)" fill="#eaf6ff"/>
        <path id="Trazado_144" data-name="Trazado 144" d="M390.731,109.725l-3.658-2.284v38.134a2.432,2.432,0,0,1-2.432,2.432H388.3a2.432,2.432,0,0,0,2.432-2.432V109.725Z" transform="translate(-342.586 -95.729)" fill="#d8ecfe"/>
        <path id="Trazado_145" data-name="Trazado 145" d="M353.116,51.074h7.637L350.684,41v7.637a2.432,2.432,0,0,0,2.432,2.432Z" transform="translate(-312.608 -37.079)" fill="#b3dafe"/>
        <path id="Trazado_146" data-name="Trazado 146" d="M77.664,203.3H75.757a2.353,2.353,0,0,0-2.032-1.179H44.19l-3.088-5.11H39.229a1.759,1.759,0,0,0-1.408-.706H27.529a1.76,1.76,0,0,0-1.76,1.76v32.011a2.346,2.346,0,0,0,2.346,2.346H73.726a2.35,2.35,0,0,0,1.13-.293h0a2.357,2.357,0,0,0,.751-.66h2.053Z" transform="translate(-25.769 -174.182)" fill="#fdb441"/>
        <g id="Grupo_37" data-name="Grupo 37" transform="translate(12.052 22.126)">
          <path id="Trazado_147" data-name="Trazado 147" d="M130.173,197.253l2.549,4.872h3.658l-2.549-4.872a1.76,1.76,0,0,0-1.559-.944h-3.658A1.759,1.759,0,0,1,130.173,197.253Z" transform="translate(-128.614 -196.309)" fill="#fea613"/>
          <path id="Trazado_148" data-name="Trazado 148" d="M438.658,245.938H435a2.346,2.346,0,0,1,2.346,2.346v25.608A2.346,2.346,0,0,1,435,276.238h3.658A2.346,2.346,0,0,0,441,273.892V248.284A2.346,2.346,0,0,0,438.658,245.938Z" transform="translate(-399.095 -240.122)" fill="#fea613"/>
        </g>
      </g>
      <g id="Grupo_39" data-name="Grupo 39" transform="translate(18.268 0)">
        <path id="Trazado_149" data-name="Trazado 149" d="M62.867,300.041H21.493a1.469,1.469,0,0,1-1.467-1.467v-23.8a.879.879,0,0,0-1.758,0v23.8a3.229,3.229,0,0,0,3.225,3.225H62.867a.879.879,0,1,0,0-1.758Z" transform="translate(-18.268 -241.799)"/>
        <path id="Trazado_150" data-name="Trazado 150" d="M38.186,29.228a.879.879,0,0,0,.779.471h31.8a1.469,1.469,0,0,1,1.467,1.467V56.775a1.469,1.469,0,0,1-1.467,1.467H66.969a.879.879,0,1,0,0,1.758h3.793a3.229,3.229,0,0,0,3.225-3.225V31.167a3.229,3.229,0,0,0-3.225-3.225h-2.59V14.875a.881.881,0,0,0-.257-.621L62.9,9.243v-6.6A2.641,2.641,0,0,0,60.265,0H26a2.641,2.641,0,0,0-2.638,2.638V22.126H20.906a2.641,2.641,0,0,0-2.638,2.638v4.1a.879.879,0,1,0,1.758,0v-4.1a.882.882,0,0,1,.881-.881h13.95a.878.878,0,0,1,.78.472l2.549,4.872ZM58.1,6.927,65.17,14H59.655A1.555,1.555,0,0,1,58.1,12.442ZM25.123,2.638A.882.882,0,0,1,26,1.758H60.265a.882.882,0,0,1,.881.881V7.485l-3.3-3.3a.887.887,0,0,0-.622-.257H32.755a3.315,3.315,0,0,0-3.311,3.311V22.126H25.123ZM39.5,27.942l-.908-1.736H61.507a.879.879,0,1,0,0-1.758H37.669l-.475-.907a2.631,2.631,0,0,0-2.338-1.415H31.2V7.238a1.555,1.555,0,0,1,1.553-1.553H56.344v6.758a3.315,3.315,0,0,0,3.311,3.311h6.758V27.942Z" transform="translate(-18.268 0)"/>
        <path id="Trazado_151" data-name="Trazado 151" d="M190.061,158.956H164.766a.879.879,0,1,0,0,1.758h25.295a.879.879,0,0,0,0-1.758Z" transform="translate(-146.822 -140.328)"/>
      </g>
    </g>
  </g>
</svg>
