<svg xmlns="http://www.w3.org/2000/svg" xmlns:xlink="http://www.w3.org/1999/xlink" width="70" height="60" viewBox="0 0 70 60">
  <defs>
    <clipPath id="clip-informacion">
      <rect width="70" height="60"/>
    </clipPath>
  </defs>
  <g id="informacion" clip-path="url(#clip-informacion)">
    <g id="signo-de-interrogacion" transform="translate(5 -7.5)">
      <g id="Grupo_11" data-name="Grupo 11" transform="translate(0 31.194)">
        <path id="Trazado_111" data-name="Trazado 111" d="M1.746,238.414A1.745,1.745,0,0,1,0,236.668V205.246A1.745,1.745,0,0,1,1.746,203.5H22.81a1.745,1.745,0,0,1,1.746,1.746v5.237H36.892a1.745,1.745,0,0,1,1.746,1.746v20.948a1.745,1.745,0,0,1-1.746,1.746H5.237a1.748,1.748,0,0,0-1.746,1.746A1.745,1.745,0,0,1,1.746,238.414Z" transform="translate(0 -203.5)" fill="#80a3ff"/>
      </g>
      <path id="Trazado_112" data-name="Trazado 112" d="M183.573,210.483H171.237v-5.237a1.745,1.745,0,0,0-1.746-1.746H166v31.422h17.573a1.745,1.745,0,0,0,1.746-1.746V212.228A1.745,1.745,0,0,0,183.573,210.483Z" transform="translate(-146.681 -172.306)" fill="#5c75e6"/>
      <g id="Grupo_12" data-name="Grupo 12" transform="translate(6.983 38.177)">
        <path id="Trazado_113" data-name="Trazado 113" d="M75.828,266.991H61.746a1.746,1.746,0,1,1,0-3.491H75.828a1.746,1.746,0,0,1,0,3.491Z" transform="translate(-60 -263.5)" fill="#f3f5f9"/>
      </g>
      <path id="Trazado_114" data-name="Trazado 114" d="M169.491,263.5H166v3.491h3.491a1.746,1.746,0,1,0,0-3.491Z" transform="translate(-146.681 -225.323)" fill="#e2dff4"/>
      <g id="Grupo_13" data-name="Grupo 13" transform="translate(21.065 8.5)">
        <path id="Trazado_115" data-name="Trazado 115" d="M217.776,45.159a1.745,1.745,0,0,1-1.746-1.746,1.748,1.748,0,0,0-1.746-1.746H182.746A1.745,1.745,0,0,1,181,39.922V10.246A1.745,1.745,0,0,1,182.746,8.5h35.03a1.745,1.745,0,0,1,1.746,1.746V43.414A1.745,1.745,0,0,1,217.776,45.159Z" transform="translate(-181 -8.5)" fill="#ff6680"/>
      </g>
      <path id="Trazado_116" data-name="Trazado 116" d="M364.457,8.5H347V41.668h13.966a1.748,1.748,0,0,1,1.746,1.746,1.746,1.746,0,0,0,3.491,0V10.246A1.745,1.745,0,0,0,364.457,8.5Z" transform="translate(-306.616)" fill="#e62e6b"/>
      <g id="Question_Message_1_" transform="translate(6.983 15.483)">
        <g id="Grupo_14" data-name="Grupo 14" transform="translate(28.164)">
          <path id="Trazado_117" data-name="Trazado 117" d="M312.474,73.737a5.307,5.307,0,0,1-2.619,4.539,1.76,1.76,0,0,0-.873,1.5,1.746,1.746,0,1,1-3.491,0,5.294,5.294,0,0,1,1.746-3.875,3.184,3.184,0,0,1,.873-.663,1.76,1.76,0,0,0,.873-1.5,1.746,1.746,0,1,0-3.491,0,1.746,1.746,0,0,1-3.491,0,5.237,5.237,0,0,1,10.474,0Z" transform="translate(-302 -68.5)" fill="#f3f5f9"/>
        </g>
        <g id="Grupo_15" data-name="Grupo 15" transform="translate(31.136 15.889)">
          <circle id="Elipse_2" data-name="Elipse 2" cx="2" cy="2" r="2" transform="translate(-0.119 0.129)" fill="#f3f5f9"/>
        </g>
        <g id="Grupo_16" data-name="Grupo 16" transform="translate(0 36.659)">
          <path id="Trazado_118" data-name="Trazado 118" d="M82.927,386.991H61.746a1.746,1.746,0,1,1,0-3.491H82.927a1.746,1.746,0,0,1,0,3.491Z" transform="translate(-60 -383.5)" fill="#f3f5f9"/>
        </g>
        <g id="Grupo_17" data-name="Grupo 17" transform="translate(0 29.677)">
          <path id="Trazado_119" data-name="Trazado 119" d="M82.927,326.991H61.746a1.746,1.746,0,0,1,0-3.491H82.927a1.746,1.746,0,0,1,0,3.491Z" transform="translate(-60 -323.5)" fill="#f3f5f9"/>
        </g>
      </g>
      <g id="Grupo_18" data-name="Grupo 18" transform="translate(19.319 15.483)">
        <path id="Trazado_120" data-name="Trazado 120" d="M348.746,205.246A1.746,1.746,0,0,0,347,203.5v3.491A1.746,1.746,0,0,0,348.746,205.246Z" transform="translate(-325.935 -187.789)" fill="#e2dff4"/>
        <path id="Trazado_121" data-name="Trazado 121" d="M352.237,73.737a5.307,5.307,0,0,1-2.619,4.539,1.761,1.761,0,0,0-.873,1.5A1.729,1.729,0,0,1,347,81.523V75.9a3.184,3.184,0,0,1,.873-.663,1.76,1.76,0,0,0,.873-1.5A1.729,1.729,0,0,0,347,71.991V68.5A5.23,5.23,0,0,1,352.237,73.737Z" transform="translate(-325.935 -68.5)" fill="#e2dff4"/>
        <path id="Trazado_122" data-name="Trazado 122" d="M176.591,383.5H166v3.491h10.591a1.746,1.746,0,0,0,0-3.491Z" transform="translate(-166 -346.841)" fill="#e2dff4"/>
        <path id="Trazado_123" data-name="Trazado 123" d="M176.591,323.5H166v3.491h10.591a1.746,1.746,0,0,0,0-3.491Z" transform="translate(-166 -293.823)" fill="#e2dff4"/>
      </g>
    </g>
  </g>
</svg>
