<?xml version="1.0" encoding="UTF-8" standalone="no"?>
<svg
   xmlns:dc="http://purl.org/dc/elements/1.1/"
   xmlns:cc="http://creativecommons.org/ns#"
   xmlns:rdf="http://www.w3.org/1999/02/22-rdf-syntax-ns#"
   xmlns:svg="http://www.w3.org/2000/svg"
   xmlns="http://www.w3.org/2000/svg"
   id="svg5570"
   version="1.1"
   viewBox="0 0 512 512"
   height="512mm"
   width="512mm">
  <defs
     id="defs5564">
    <clipPath
       id="clipPath416"
       clipPathUnits="userSpaceOnUse">
      <path
         id="path414"
         d="m 106.521,505.844 h 53.4 v -53.401 h -53.4 z" />
    </clipPath>
    <clipPath
       id="clipPath432"
       clipPathUnits="userSpaceOnUse">
      <path
         id="path430"
         d="m 107.103,505.263 h 53.4 v -53.401 h -53.4 z" />
    </clipPath>
    <clipPath
       id="clipPath452"
       clipPathUnits="userSpaceOnUse">
      <path
         id="path450"
         d="m 121.394,490.97 h 53.401 v -53.4 h -53.401 z" />
    </clipPath>
    <clipPath
       id="clipPath468"
       clipPathUnits="userSpaceOnUse">
      <path
         id="path466"
         d="m 121.976,490.39 h 53.4 v -53.401 h -53.4 z" />
    </clipPath>
    <clipPath
       id="clipPath488"
       clipPathUnits="userSpaceOnUse">
      <path
         id="path486"
         d="M 252.477,497.736 H 303.71 V 458.461 H 252.477 Z" />
    </clipPath>
    <clipPath
       id="clipPath516"
       clipPathUnits="userSpaceOnUse">
      <path
         id="path514"
         d="m 260.136,464.691 h 34.022 v -18.162 h -34.022 z" />
    </clipPath>
    <clipPath
       id="clipPath1186"
       clipPathUnits="userSpaceOnUse">
      <path
         id="path1184"
         d="m 371.012,489.894 h 13.025 v -36.841 h -13.025 z" />
    </clipPath>
    <clipPath
       id="clipPath1238"
       clipPathUnits="userSpaceOnUse">
      <path
         id="path1236"
         d="m 416.701,489.894 h 13.026 v -36.841 h -13.026 z" />
    </clipPath>
    <clipPath
       id="clipPath1290"
       clipPathUnits="userSpaceOnUse">
      <path
         id="path1288"
         d="m 381.949,500.831 h 36.84 v -13.025 h -36.84 z" />
    </clipPath>
    <clipPath
       id="clipPath1342"
       clipPathUnits="userSpaceOnUse">
      <path
         id="path1340"
         d="m 381.949,455.141 h 36.84 v -13.025 h -36.84 z" />
    </clipPath>
    <clipPath
       id="clipPath1378"
       clipPathUnits="userSpaceOnUse">
      <path
         id="path1376"
         d="M 377.82,494.007 H 422.9 V 448.929 H 377.82 Z" />
    </clipPath>
    <clipPath
       id="clipPath1398"
       clipPathUnits="userSpaceOnUse">
      <path
         id="path1396"
         d="m 372.796,499.034 h 55.132 v -28.96 h -55.132 z" />
    </clipPath>
    <clipPath
       id="clipPath1422"
       clipPathUnits="userSpaceOnUse">
      <path
         id="path1420"
         d="m 390.837,480.992 h 19.048 v -10.918 h -19.048 z" />
    </clipPath>
    <clipPath
       id="clipPath2348"
       clipPathUnits="userSpaceOnUse">
      <path
         id="path2346"
         d="m 629.877,480.125 h 17.658 V 462.47 h -17.658 z" />
    </clipPath>
    <clipPath
       id="clipPath2364"
       clipPathUnits="userSpaceOnUse">
      <path
         id="path2362"
         d="m 645.464,464.54 h 17.654 v -17.656 h -17.654 z" />
    </clipPath>
    <clipPath
       id="clipPath2404"
       clipPathUnits="userSpaceOnUse">
      <path
         id="path2402"
         d="m 671.973,484.672 h 11.481 v -11.481 h -11.481 z" />
    </clipPath>
    <clipPath
       id="clipPath2420"
       clipPathUnits="userSpaceOnUse">
      <path
         id="path2418"
         d="m 682.108,494.806 h 11.481 v -11.479 h -11.481 z" />
    </clipPath>
    <clipPath
       id="clipPath2076"
       clipPathUnits="userSpaceOnUse">
      <path
         id="path2074"
         d="m 111.314,382.691 h 49.848 v -7.75 h -49.848 z" />
    </clipPath>
    <clipPath
       id="clipPath2096"
       clipPathUnits="userSpaceOnUse">
      <path
         id="path2094"
         d="m 107.858,373.707 h 56.759 v -3.637 h -56.759 z" />
    </clipPath>
    <clipPath
       id="clipPath2112"
       clipPathUnits="userSpaceOnUse">
      <path
         id="path2110"
         d="m 132.422,358.392 h 29.332 v -21.443 h -29.332 z" />
    </clipPath>
    <clipPath
       id="clipPath2140"
       clipPathUnits="userSpaceOnUse">
      <path
         id="path2138"
         d="m 140.822,357.173 h 19.79 v -19.789 h -19.79 z" />
    </clipPath>
    <clipPath
       id="clipPath2156"
       clipPathUnits="userSpaceOnUse">
      <path
         id="path2154"
         d="m 140.822,357.173 h 17.379 v -17.375 h -17.379 z" />
    </clipPath>
    <clipPath
       id="clipPath2176"
       clipPathUnits="userSpaceOnUse">
      <path
         id="path2174"
         d="m 145.11,344.851 h 3.8 v -3.797 h -3.8 z" />
    </clipPath>
    <clipPath
       id="clipPath2192"
       clipPathUnits="userSpaceOnUse">
      <path
         id="path2190"
         d="m 151.674,354.583 h 6.273 v -6.275 h -6.273 z" />
    </clipPath>
    <clipPath
       id="clipPath2448"
       clipPathUnits="userSpaceOnUse">
      <path
         id="path2446"
         d="m 242.236,390.165 h 56.261 v -4.573 h -56.261 z" />
    </clipPath>
    <clipPath
       id="clipPath2464"
       clipPathUnits="userSpaceOnUse">
      <path
         id="path2462"
         d="m 250.983,390.165 h 15.954 v -15.954 h -15.954 z" />
    </clipPath>
    <clipPath
       id="clipPath2478"
       clipPathUnits="userSpaceOnUse">
      <path
         id="path2476"
         d="m 289.59,390.165 h 8.907 v -15.954 h -8.907 z" />
    </clipPath>
    <clipPath
       id="clipPath2502"
       clipPathUnits="userSpaceOnUse">
      <path
         id="path2500"
         d="m 242.236,370.165 h 56.261 v -4.573 h -56.261 z" />
    </clipPath>
    <clipPath
       id="clipPath2518"
       clipPathUnits="userSpaceOnUse">
      <path
         id="path2516"
         d="m 250.983,370.165 h 15.954 v -15.954 h -15.954 z" />
    </clipPath>
    <clipPath
       id="clipPath2532"
       clipPathUnits="userSpaceOnUse">
      <path
         id="path2530"
         d="m 289.59,370.165 h 8.907 v -15.954 h -8.907 z" />
    </clipPath>
    <clipPath
       id="clipPath2556"
       clipPathUnits="userSpaceOnUse">
      <path
         id="path2554"
         d="m 242.236,350.165 h 56.261 v -4.573 h -56.261 z" />
    </clipPath>
    <clipPath
       id="clipPath2572"
       clipPathUnits="userSpaceOnUse">
      <path
         id="path2570"
         d="m 250.983,350.165 h 15.954 v -15.954 h -15.954 z" />
    </clipPath>
    <clipPath
       id="clipPath2586"
       clipPathUnits="userSpaceOnUse">
      <path
         id="path2584"
         d="m 289.59,350.165 h 8.907 v -15.954 h -8.907 z" />
    </clipPath>
    <clipPath
       id="clipPath2606"
       clipPathUnits="userSpaceOnUse">
      <path
         id="path2604"
         d="m 281.489,396.801 h 28.519 v -36.579 h -28.519 z" />
    </clipPath>
    <clipPath
       id="clipPath2622"
       clipPathUnits="userSpaceOnUse">
      <path
         id="path2620"
         d="m 283.593,399.946 h 12.931 v -7.461 h -12.931 z" />
    </clipPath>
    <clipPath
       id="clipPath2638"
       clipPathUnits="userSpaceOnUse">
      <path
         id="path2636"
         d="m 286.668,374.432 h 8.201 v -5.317 h -8.201 z" />
    </clipPath>
    <clipPath
       id="clipPath2024"
       clipPathUnits="userSpaceOnUse">
      <path
         id="path2022"
         d="m 394.441,370.984 h 11.848 v -6.516 h -11.848 z" />
    </clipPath>
    <clipPath
       id="clipPath2040"
       clipPathUnits="userSpaceOnUse">
      <path
         id="path2038"
         d="m 396.527,375.613 h 7.676 v -3.924 h -7.676 z" />
    </clipPath>
    <clipPath
       id="clipPath1656"
       clipPathUnits="userSpaceOnUse">
      <path
         id="path1654"
         d="m 533.209,353.736 h 13.128 v -11.67 h -13.128 z" />
    </clipPath>
    <clipPath
       id="clipPath1680"
       clipPathUnits="userSpaceOnUse">
      <path
         id="path1678"
         d="m 631.604,371.514 h 57.522 v -7.066 h -57.522 z" />
    </clipPath>
    <clipPath
       id="clipPath1696"
       clipPathUnits="userSpaceOnUse">
      <path
         id="path1694"
         d="m 632.923,369.084 h 19.375 v -19.375 h -19.375 z" />
    </clipPath>
    <clipPath
       id="clipPath1712"
       clipPathUnits="userSpaceOnUse">
      <path
         id="path1710"
         d="m 629.054,352.311 h 15.49 v -22.404 h -15.49 z" />
    </clipPath>
    <clipPath
       id="clipPath1732"
       clipPathUnits="userSpaceOnUse">
      <path
         id="path1730"
         d="m 676.187,352.309 h 15.488 v -22.402 h -15.488 z" />
    </clipPath>
    <clipPath
       id="clipPath668"
       clipPathUnits="userSpaceOnUse">
      <path
         id="path666"
         d="m 240.434,237.562 h 17.052 V 220.51 h -17.052 z" />
    </clipPath>
    <clipPath
       id="clipPath684"
       clipPathUnits="userSpaceOnUse">
      <path
         id="path682"
         d="m 239.317,237.274 h 17.882 v -16.807 h -17.882 z" />
    </clipPath>
    <clipPath
       id="clipPath704"
       clipPathUnits="userSpaceOnUse">
      <path
         id="path702"
         d="m 243.072,240.201 h 17.054 v -17.053 h -17.054 z" />
    </clipPath>
    <clipPath
       id="clipPath720"
       clipPathUnits="userSpaceOnUse">
      <path
         id="path718"
         d="m 242.563,239.913 h 17.274 v -17.274 h -17.274 z" />
    </clipPath>
    <clipPath
       id="clipPath740"
       clipPathUnits="userSpaceOnUse">
      <path
         id="path738"
         d="m 245.203,242.554 h 17.275 v -17.276 h -17.275 z" />
    </clipPath>
    <clipPath
       id="clipPath760"
       clipPathUnits="userSpaceOnUse">
      <path
         id="path758"
         d="m 247.098,242.058 h 14.884 v -14.884 h -14.884 z" />
    </clipPath>
    <clipPath
       id="clipPath788"
       clipPathUnits="userSpaceOnUse">
      <path
         id="path786"
         d="m 251.854,279.349 h 47.418 v -42.663 h -47.418 z" />
    </clipPath>
    <clipPath
       id="clipPath792"
       clipPathUnits="userSpaceOnUse">
      <path
         id="path790"
         d="m 263.785,279.349 h 35.487 v -35.488 h -35.487 z" />
    </clipPath>
    <clipPath
       id="clipPath796"
       clipPathUnits="userSpaceOnUse">
      <path
         id="path794"
         d="m 251.854,265.687 h 26.222 v -29.001 h -26.222 z" />
    </clipPath>
    <clipPath
       id="clipPath832"
       clipPathUnits="userSpaceOnUse">
      <path
         id="path830"
         d="m 287.495,272.283 h 9.645 v -26.416 h -9.645 z" />
    </clipPath>
    <clipPath
       id="clipPath836"
       clipPathUnits="userSpaceOnUse">
      <path
         id="path834"
         d="m 287.495,272.283 h 9.645 v -26.416 h -9.645 z" />
    </clipPath>
    <clipPath
       id="clipPath954"
       clipPathUnits="userSpaceOnUse">
      <path
         id="path952"
         d="m 368.566,280.766 h 62.956 v -38.284 h -62.956 z" />
    </clipPath>
    <clipPath
       id="clipPath916"
       clipPathUnits="userSpaceOnUse">
      <path
         id="path914"
         d="M 512.463,280.022 H 547.48 V 233.114 H 512.463 Z" />
    </clipPath>
    <clipPath
       id="clipPath1872"
       clipPathUnits="userSpaceOnUse">
      <path
         id="path1870"
         d="m 627.234,240.682 h 66.262 v -4.573 h -66.262 z" />
    </clipPath>
  </defs>
  <metadata
     id="metadata5567">
    <rdf:RDF>
      <cc:Work
         rdf:about="">
        <dc:format>image/svg+xml</dc:format>
        <dc:type
           rdf:resource="http://purl.org/dc/dcmitype/StillImage" />
        <dc:title></dc:title>
      </cc:Work>
    </rdf:RDF>
  </metadata>
  <g
     transform="translate(0,215)"
     id="layer1">
    <g
       style="stroke-width:0.05060491"
       id="g6171"
       transform="matrix(6.9712169,0,0,-6.9712169,-724.48669,3324.4963)">
      <g
         style="stroke-width:0.00253968"
         id="g6858"
         transform="matrix(1.0083395,0,0,1.0083395,-525.27345,220.55274)">
        <g
           style="stroke-width:0.00253968"
           id="g1834"
           transform="translate(670.2656,261.6055)">
          <path
             d="m 0,0 c -0.431,0 -0.863,0.137 -1.231,0.422 -2.515,1.939 -5.513,2.967 -8.669,2.967 -3.156,-0.002 -6.155,-1.026 -8.666,-2.967 -0.883,-0.682 -2.151,-0.52 -2.832,0.367 -0.681,0.881 -0.518,2.149 0.363,2.83 3.229,2.488 7.078,3.805 11.137,3.807 4.057,0 7.906,-1.319 11.131,-3.809 C 2.115,2.934 2.281,1.666 1.598,0.785 1.202,0.27 0.604,0 0,0"
             style="fill:#ffc52f;fill-opacity:1;fill-rule:nonzero;stroke:none;stroke-width:0.00253968"
             id="path1836" />
        </g>
        <g
           style="stroke-width:0.00253968"
           id="g1838"
           transform="translate(674.4258,267.3047)">
          <path
             d="M 0,0 C -0.426,0 -0.852,0.133 -1.218,0.412 -4.957,3.246 -9.4,4.75 -14.061,4.75 c -4.658,0 -9.102,-1.504 -12.839,-4.342 -0.892,-0.67 -2.157,-0.5 -2.832,0.389 -0.672,0.887 -0.498,2.154 0.39,2.828 4.449,3.377 9.731,5.16 15.279,5.162 5.55,0 10.837,-1.783 15.284,-5.16 C 2.111,2.951 2.284,1.684 1.611,0.797 1.213,0.273 0.611,0 0,0"
             style="fill:#ffc52f;fill-opacity:1;fill-rule:nonzero;stroke:none;stroke-width:0.00253968"
             id="path1840" />
        </g>
        <g
           style="stroke-width:0.00253968"
           id="g1842"
           transform="translate(666.1055,255.9082)">
          <path
             d="m 0,0 c -0.444,0 -0.893,0.145 -1.264,0.447 -2.569,2.065 -6.383,2.069 -8.953,0 -0.872,-0.701 -2.137,-0.556 -2.838,0.307 -0.699,0.871 -0.556,2.139 0.31,2.84 1.981,1.592 4.468,2.468 7.005,2.468 2.537,0 5.025,-0.876 7.005,-2.47 C 2.135,2.893 2.272,1.625 1.574,0.754 1.176,0.256 0.59,0 0,0"
             style="fill:#ffc52f;fill-opacity:1;fill-rule:nonzero;stroke:none;stroke-width:0.00253968"
             id="path1844" />
        </g>
        <g
           style="stroke-width:0.00253968"
           id="g1846"
           transform="translate(637.6611,275.9551)">
          <path
             d="M 0,0 C -0.218,0.279 -0.938,0.318 -1.28,0.316 -1.622,0.318 -2.343,0.279 -2.562,0 c -0.216,-0.281 -0.865,-39.9 -0.865,-40.42 0,-1.039 4.292,-1.111 4.292,0 C 0.865,-39.9 0.219,-0.281 0,0"
             style="fill:#dce2e9;fill-opacity:1;fill-rule:nonzero;stroke:none;stroke-width:0.00253968"
             id="path1848" />
        </g>
        <g
           style="stroke-width:0.00253968"
           id="g1850"
           transform="translate(685.6309,275.9551)">
          <path
             d="M 0,0 C -0.219,0.279 -0.939,0.318 -1.281,0.316 -1.623,0.318 -2.343,0.279 -2.562,0 c -0.217,-0.281 -0.865,-39.9 -0.865,-40.42 0,-1.039 4.292,-1.111 4.292,0 C 0.865,-39.9 0.219,-0.281 0,0"
             style="fill:#dce2e9;fill-opacity:1;fill-rule:nonzero;stroke:none;stroke-width:0.00253968"
             id="path1852" />
        </g>
        <g
           style="stroke-width:0.00253968"
           id="g1854"
           transform="translate(689.9863,223.6953)">
          <path
             d="m 0,0 c 0,-2.041 -1.656,-3.695 -3.697,-3.695 h -52.727 c -2.041,0 -3.695,1.654 -3.695,3.695 v 10.658 c 0,2.041 1.654,3.697 3.695,3.697 H -3.697 C -1.656,14.355 0,12.699 0,10.658 Z"
             style="fill:#5a6271;fill-opacity:1;fill-rule:nonzero;stroke:none;stroke-width:0.00253968"
             id="path1856" />
        </g>
        <g
           style="stroke-width:0.00253968"
           id="g1858"
           transform="translate(693.4961,228.4258)">
          <path
             d="m 0,0 c 0,-2.041 -1.656,-3.697 -3.697,-3.697 h -58.869 c -2.04,0 -3.696,1.656 -3.696,3.697 v 8.561 c 0,2.041 1.656,3.695 3.696,3.695 H -3.697 C -1.656,12.256 0,10.602 0,8.561 Z"
             style="fill:#dce2e9;fill-opacity:1;fill-rule:nonzero;stroke:none;stroke-width:0.00253968"
             id="path1860" />
        </g>
        <g
           style="stroke-width:0.00253968"
           id="g1862"
           transform="translate(689.7988,225.6055)">
          <path
             d="m 0,0 h -58.869 c -2.04,0 -3.695,1.656 -3.695,3.697 V 2.82 c 0,-2.041 1.655,-3.697 3.695,-3.697 H 0 c 2.041,0 3.697,1.656 3.697,3.697 V 3.697 C 3.697,1.656 2.041,0 0,0"
             style="fill:#bfc8d5;fill-opacity:1;fill-rule:nonzero;stroke:none;stroke-width:0.00253968"
             id="path1864" />
        </g>
        <g
           style="stroke-width:0.00253968"
           id="g1866">
          <g
             style="stroke-width:0.00253968"
             id="g1868" />
          <g
             style="stroke-width:0.00253968"
             id="g1880">
            <g
               style="stroke-width:0.00253968"
               clip-path="url(#clipPath1872)"
               id="g1878">
              <g
                 style="stroke-width:0.00253968"
                 transform="translate(689.7988,240.6816)"
                 id="g1876">
                <path
                   d="m 0,0 h -58.869 c -2.04,0 -3.695,-1.654 -3.695,-3.695 v -0.877 c 0,2.041 1.655,3.695 3.695,3.695 H 0 c 2.041,0 3.697,-1.654 3.697,-3.695 v 0.877 C 3.697,-1.654 2.041,0 0,0"
                   style="fill:#dce2e9;fill-opacity:1;fill-rule:nonzero;stroke:none;stroke-width:0.00253968"
                   id="path1874" />
              </g>
            </g>
          </g>
        </g>
        <g
           style="stroke-width:0.00253968"
           id="g1882"
           transform="translate(633.2754,235.6621)">
          <path
             d="M 0,0 C 0.003,-1.115 -0.906,-2.021 -2.021,-2.021 -3.136,-2.02 -4.041,-1.115 -4.041,0 -4.042,1.113 -3.137,2.02 -2.02,2.02 -0.904,2.021 0,1.113 0,0"
             style="fill:#ffc52f;fill-opacity:1;fill-rule:nonzero;stroke:none;stroke-width:0.00253968"
             id="path1884" />
        </g>
        <g
           style="stroke-width:0.00253968"
           id="g1886"
           transform="translate(633.2754,229.6621)">
          <path
             d="M 0,0 C 0.003,-1.115 -0.906,-2.021 -2.021,-2.021 -3.136,-2.02 -4.041,-1.115 -4.041,0 -4.042,1.113 -3.137,2.02 -2.02,2.02 -0.904,2.021 0,1.113 0,0"
             style="fill:#8c93a1;fill-opacity:1;fill-rule:nonzero;stroke:none;stroke-width:0.00253968"
             id="path1888" />
        </g>
        <g
           style="stroke-width:0.00253968"
           id="g1890"
           transform="translate(676.4268,230.7051)">
          <path
             d="m 0,0 h -32.122 c -1.104,0 -2,0.895 -2,2 0,1.104 0.896,2 2,2 H 0 C 1.104,4 2,3.104 2,2 2,0.895 1.104,0 0,0"
             style="fill:#8c93a1;fill-opacity:1;fill-rule:nonzero;stroke:none;stroke-width:0.00253968"
             id="path1892" />
        </g>
      </g>
    </g>
  </g>
</svg>
