<svg xmlns="http://www.w3.org/2000/svg" xmlns:xlink="http://www.w3.org/1999/xlink" width="70" height="60" viewBox="0 0 70 60">
  <defs>
    <clipPath id="clip-legal_1">
      <rect width="70" height="60"/>
    </clipPath>
  </defs>
  <g id="legal_1" data-name="legal – 1" clip-path="url(#clip-legal_1)">
    <g id="documentos" transform="translate(-21.186 2.642)">
      <path id="Trazado_178" data-name="Trazado 178" d="M78.444,22.348a3.681,3.681,0,0,1,2.944,4.324L73.66,66.414a3.681,3.681,0,0,1-4.324,2.944L36.862,63.01a3.681,3.681,0,0,1-2.944-4.324l7.728-39.742A3.713,3.713,0,0,1,45.049,16a3.13,3.13,0,0,1,.92.092Z" transform="translate(-0.934 -14.16)" fill="#e7c9ff"/>
      <path id="Trazado_179" data-name="Trazado 179" d="M69.6,32a3.691,3.691,0,0,1,3.68,3.68V76.158a3.691,3.691,0,0,1-3.68,3.68H36.48a3.691,3.691,0,0,1-3.68-3.68V35.68a3.752,3.752,0,0,1,2.76-3.588h.092A2.547,2.547,0,0,1,36.48,32Z" transform="translate(0 -28.32)" fill="#f3e4ff"/>
      <path id="Trazado_180" data-name="Trazado 180" d="M70.387,4.6V23a4.6,4.6,0,0,1-9.2,0V8.28a.92.92,0,1,1,1.84,0V23a2.76,2.76,0,0,0,5.52,0V4.6a2.722,2.722,0,0,0-.184-.92,2.68,2.68,0,0,0-2.576-1.84h-3.68a2.68,2.68,0,0,0-2.576,1.84h-1.1a2.547,2.547,0,0,0-.828.092A4.559,4.559,0,0,1,62.108,0h3.68A4.627,4.627,0,0,1,70.3,3.68,3.129,3.129,0,0,1,70.387,4.6Z" transform="translate(-21.948)" fill="#9f2bfb"/>
      <g id="Grupo_41" data-name="Grupo 41" transform="translate(39.24 10.12)">
        <path id="Trazado_181" data-name="Trazado 181" d="M228.759,89.84H217.72a.92.92,0,0,1,0-1.84h11.04a.92.92,0,0,1,0,1.84Z" transform="translate(-202.081 -88)" fill="#e7c9ff"/>
        <path id="Trazado_182" data-name="Trazado 182" d="M228.759,153.84H217.72a.92.92,0,0,1,0-1.84h11.04a.92.92,0,0,1,0,1.84Z" transform="translate(-202.081 -144.64)" fill="#e7c9ff"/>
        <path id="Trazado_183" data-name="Trazado 183" d="M221.4,217.84h-3.68a.92.92,0,0,1,0-1.84h3.68a.92.92,0,0,1,0,1.84Z" transform="translate(-202.081 -201.281)" fill="#e7c9ff"/>
        <path id="Trazado_184" data-name="Trazado 184" d="M285.4,217.84h-3.68a.92.92,0,1,1,0-1.84h3.68a.92.92,0,0,1,0,1.84Z" transform="translate(-258.721 -201.281)" fill="#e7c9ff"/>
        <path id="Trazado_185" data-name="Trazado 185" d="M100.759,313.84H89.72a.92.92,0,0,1,0-1.84h11.04a.92.92,0,0,1,0,1.84Z" transform="translate(-88.8 -286.241)" fill="#e7c9ff"/>
        <path id="Trazado_186" data-name="Trazado 186" d="M228.759,313.84H217.72a.92.92,0,0,1,0-1.84h11.04a.92.92,0,0,1,0,1.84Z" transform="translate(-202.081 -286.241)" fill="#e7c9ff"/>
        <path id="Trazado_187" data-name="Trazado 187" d="M228.759,185.84H217.72a.92.92,0,0,1,0-1.84h11.04a.92.92,0,0,1,0,1.84Z" transform="translate(-202.081 -172.96)" fill="#e7c9ff"/>
        <path id="Trazado_188" data-name="Trazado 188" d="M108.119,281.84H89.72a.92.92,0,1,1,0-1.84h18.4a.92.92,0,1,1,0,1.84Z" transform="translate(-88.8 -257.921)" fill="#e7c9ff"/>
        <path id="Trazado_189" data-name="Trazado 189" d="M285.4,281.84h-3.68a.92.92,0,1,1,0-1.84h3.68a.92.92,0,1,1,0,1.84Z" transform="translate(-258.721 -257.921)" fill="#e7c9ff"/>
        <path id="Trazado_190" data-name="Trazado 190" d="M221.4,121.84h-3.68a.92.92,0,0,1,0-1.84h3.68a.92.92,0,0,1,0,1.84Z" transform="translate(-202.081 -116.32)" fill="#e7c9ff"/>
        <path id="Trazado_191" data-name="Trazado 191" d="M285.4,121.84h-3.68a.92.92,0,0,1,0-1.84h3.68a.92.92,0,0,1,0,1.84Z" transform="translate(-258.721 -116.32)" fill="#e7c9ff"/>
        <path id="Trazado_192" data-name="Trazado 192" d="M228.759,249.84H217.72a.92.92,0,0,1,0-1.84h11.04a.92.92,0,1,1,0,1.84Z" transform="translate(-202.081 -229.601)" fill="#e7c9ff"/>
      </g>
    </g>
  </g>
</svg>
