<svg xmlns="http://www.w3.org/2000/svg" xmlns:xlink="http://www.w3.org/1999/xlink" width="70" height="60" viewBox="0 0 70 60">
  <defs>
    <clipPath id="clip-legal_2">
      <rect width="70" height="60"/>
    </clipPath>
  </defs>
  <g id="legal_2" data-name="legal – 2" clip-path="url(#clip-legal_2)">
    <g id="presupuesto_1_" data-name="presupuesto (1)" transform="translate(6.958 1.997)">
      <path id="Trazado_204" data-name="Trazado 204" d="M139.046,17.526V50.575c0,.066,0,.132,0,.2a4.267,4.267,0,0,1-4.263,4.068H110.79a4.267,4.267,0,0,1-4.267-4.266V12.311a4.261,4.261,0,0,1,4.267-4.267h19.055a4.253,4.253,0,0,1,1.853.425c1.153.555,1.477,1.256,3.549,3.374,2.383,2.588,2.952,2.853,3.438,3.973A4.22,4.22,0,0,1,139.046,17.526Z" transform="translate(-94.382 -7.164)" fill="#ffc477"/>
      <path id="Trazado_205" data-name="Trazado 205" d="M165.908,17.525V50.575c0,.066,0,.132,0,.2a4.28,4.28,0,0,1-.963.109H140.952a4.267,4.267,0,0,1-4.267-4.266V8.351c0-.067,0-.133,0-.2a4.287,4.287,0,0,1,.963-.109h19.055A4.274,4.274,0,0,1,159.825,9.4l2.284,2.444,2.615,2.736a4.294,4.294,0,0,1,1.183,2.947Z" transform="translate(-121.244 -7.163)" fill="#ffdaaa"/>
      <path id="Trazado_206" data-name="Trazado 206" d="M278.144,180.926v23.99a6.03,6.03,0,0,1-6.03,6.03h-15.67a6.03,6.03,0,0,1-6.03-6.03v-23.99a6.028,6.028,0,0,1,6.03-6.03h15.67A6.03,6.03,0,0,1,278.144,180.926Z" transform="translate(-222.533 -155.764)" fill="#4cba68"/>
      <path id="Trazado_207" data-name="Trazado 207" d="M298.442,180.926v23.99a3.095,3.095,0,0,1-3.537,4.05H279.236a6.03,6.03,0,0,1-6.03-6.03v-23.99a6,6,0,0,1,1.168-3.567,6.005,6.005,0,0,1,2.369-.484h15.67A6.03,6.03,0,0,1,298.442,180.926Z" transform="translate(-242.831 -155.764)" fill="#7ccc92"/>
      <path id="Trazado_208" data-name="Trazado 208" d="M360.66,366.871v2.818a.9.9,0,0,1-.9.9h-2.819a.9.9,0,0,1-.9-.9v-2.818a.9.9,0,0,1,.9-.9h2.819A.9.9,0,0,1,360.66,366.871Z" transform="translate(-316.603 -325.936)" fill="#2c733f"/>
      <path id="Trazado_209" data-name="Trazado 209" d="M307.739,209.022v3.019a1.944,1.944,0,0,1-1.944,1.944H290.241a1.945,1.945,0,0,1-1.944-1.944v-3.019a1.945,1.945,0,0,1,1.944-1.944h15.553A1.944,1.944,0,0,1,307.739,209.022Z" transform="translate(-256.272 -184.426)" fill="#1e81ce"/>
      <path id="Trazado_210" data-name="Trazado 210" d="M334.6,209.022v3.019a1.944,1.944,0,0,1-1.944,1.944H320.4a1.945,1.945,0,0,1-1.944-1.944v-3.019a1.945,1.945,0,0,1,1.944-1.944h12.254A1.944,1.944,0,0,1,334.6,209.022Z" transform="translate(-283.133 -184.426)" fill="#3d9ae2"/>
      <g id="Grupo_43" data-name="Grupo 43" transform="translate(32.025 32.664)">
        <path id="Trazado_211" data-name="Trazado 211" d="M292.919,366.871v2.818a.9.9,0,0,1-.9.9H289.2a.9.9,0,0,1-.9-.9v-2.818a.9.9,0,0,1,.9-.9h2.819A.9.9,0,0,1,292.919,366.871Z" transform="translate(-288.297 -358.601)" fill="#2c733f"/>
        <path id="Trazado_212" data-name="Trazado 212" d="M360.66,299.51v2.818a.9.9,0,0,1-.9.9h-2.819a.9.9,0,0,1-.9-.9V299.51a.9.9,0,0,1,.9-.9h2.819A.9.9,0,0,1,360.66,299.51Z" transform="translate(-348.629 -298.608)" fill="#2c733f"/>
      </g>
      <path id="Trazado_213" data-name="Trazado 213" d="M429.217,299.51v2.818a.9.9,0,0,1-.9.9H425.5a.9.9,0,0,1-.9-.9V299.51a.9.9,0,0,1,.9-.9h2.818A.9.9,0,0,1,429.217,299.51Z" transform="translate(-377.661 -265.944)" fill="#ee8700"/>
      <g id="Grupo_44" data-name="Grupo 44" transform="translate(32.025 32.664)">
        <path id="Trazado_214" data-name="Trazado 214" d="M292.919,299.51v2.818a.9.9,0,0,1-.9.9H289.2a.9.9,0,0,1-.9-.9V299.51a.9.9,0,0,1,.9-.9h2.819A.9.9,0,0,1,292.919,299.51Z" transform="translate(-288.297 -298.608)" fill="#2c733f"/>
        <path id="Trazado_215" data-name="Trazado 215" d="M360.66,430.932v2.819a.9.9,0,0,1-.9.9h-2.819a.9.9,0,0,1-.9-.9v-2.819a.9.9,0,0,1,.9-.9h2.819A.9.9,0,0,1,360.66,430.932Z" transform="translate(-348.629 -415.655)" fill="#2c733f"/>
        <path id="Trazado_216" data-name="Trazado 216" d="M292.919,430.932v2.819a.9.9,0,0,1-.9.9H289.2a.9.9,0,0,1-.9-.9v-2.819a.9.9,0,0,1,.9-.9h2.819A.9.9,0,0,1,292.919,430.932Z" transform="translate(-288.297 -415.655)" fill="#2c733f"/>
      </g>
      <path id="Trazado_217" data-name="Trazado 217" d="M429.217,367.308v8.751a1.538,1.538,0,0,1-1.537,1.539h-1.546a1.538,1.538,0,0,1-1.537-1.539v-8.751a1.34,1.34,0,0,1,1.34-1.34h1.942A1.339,1.339,0,0,1,429.217,367.308Z" transform="translate(-377.661 -325.935)" fill="#ee8700"/>
      <g id="Grupo_45" data-name="Grupo 45" transform="translate(32.025 32.664)">
        <path id="Trazado_218" data-name="Trazado 218" d="M360.66,366.871v.838a.9.9,0,0,1-.9.9h-2.819a.9.9,0,0,1-.9-.9v-.838a.9.9,0,0,1,.9-.9h2.819A.9.9,0,0,1,360.66,366.871Z" transform="translate(-348.629 -358.601)" fill="#317f46"/>
        <path id="Trazado_219" data-name="Trazado 219" d="M292.919,366.871v.838a.9.9,0,0,1-.9.9H289.2a.9.9,0,0,1-.9-.9v-.838a.9.9,0,0,1,.9-.9h2.819A.9.9,0,0,1,292.919,366.871Z" transform="translate(-288.297 -358.601)" fill="#317f46"/>
        <path id="Trazado_220" data-name="Trazado 220" d="M360.66,299.51v.838a.9.9,0,0,1-.9.9h-2.819a.9.9,0,0,1-.9-.9v-.838a.9.9,0,0,1,.9-.9h2.819A.9.9,0,0,1,360.66,299.51Z" transform="translate(-348.629 -298.608)" fill="#317f46"/>
      </g>
      <path id="Trazado_221" data-name="Trazado 221" d="M429.217,299.51v.838a.9.9,0,0,1-.9.9H425.5a.9.9,0,0,1-.9-.9v-.838a.9.9,0,0,1,.9-.9h2.818A.9.9,0,0,1,429.217,299.51Z" transform="translate(-377.661 -265.944)" fill="#ff9811"/>
      <g id="Grupo_46" data-name="Grupo 46" transform="translate(32.025 32.664)">
        <path id="Trazado_222" data-name="Trazado 222" d="M292.919,299.51v.838a.9.9,0,0,1-.9.9H289.2a.9.9,0,0,1-.9-.9v-.838a.9.9,0,0,1,.9-.9h2.819A.9.9,0,0,1,292.919,299.51Z" transform="translate(-288.297 -298.608)" fill="#317f46"/>
        <path id="Trazado_223" data-name="Trazado 223" d="M360.66,430.932v.839a.9.9,0,0,1-.9.9h-2.819a.9.9,0,0,1-.9-.9v-.839a.9.9,0,0,1,.9-.9h2.819A.9.9,0,0,1,360.66,430.932Z" transform="translate(-348.629 -415.655)" fill="#317f46"/>
        <path id="Trazado_224" data-name="Trazado 224" d="M292.919,430.932v.839a.9.9,0,0,1-.9.9H289.2a.9.9,0,0,1-.9-.9v-.839a.9.9,0,0,1,.9-.9h2.819A.9.9,0,0,1,292.919,430.932Z" transform="translate(-288.297 -415.655)" fill="#317f46"/>
      </g>
      <path id="Trazado_225" data-name="Trazado 225" d="M429.217,367.308v6.771a1.538,1.538,0,0,1-1.537,1.539h-1.546a1.538,1.538,0,0,1-1.537-1.539v-6.771a1.34,1.34,0,0,1,1.34-1.34h1.942A1.339,1.339,0,0,1,429.217,367.308Z" transform="translate(-377.661 -325.935)" fill="#ff9811"/>
      <path id="Trazado_226" data-name="Trazado 226" d="M343.648,19.271H338.3a1.64,1.64,0,0,1-1.64-1.64V11.924a4.261,4.261,0,0,1,1.265.93l2.285,2.444,2.615,2.737A4.225,4.225,0,0,1,343.648,19.271Z" transform="translate(-299.345 -10.62)" fill="#ffb655"/>
      <path id="Trazado_227" data-name="Trazado 227" d="M86.436,463.741a2.1,2.1,0,0,1-2.09,2.09h-12.8a2.09,2.09,0,0,1,0-4.179h12.8A2.1,2.1,0,0,1,86.436,463.741Z" transform="translate(-61.369 -411.152)" fill="#aa6100"/>
      <path id="Trazado_228" data-name="Trazado 228" d="M86.436,425.536a2.1,2.1,0,0,1-2.09,2.09h-12.8a2.09,2.09,0,0,1,0-4.179h12.8A2.1,2.1,0,0,1,86.436,425.536Z" transform="translate(-61.369 -377.126)" fill="#cc7400"/>
      <path id="Trazado_229" data-name="Trazado 229" d="M86.436,387.332a2.1,2.1,0,0,1-2.09,2.09h-12.8a2.09,2.09,0,0,1,0-4.179h12.8A2.1,2.1,0,0,1,86.436,387.332Z" transform="translate(-61.369 -343.101)" fill="#ee8700"/>
      <path id="Trazado_230" data-name="Trazado 230" d="M86.436,349.126a2.1,2.1,0,0,1-2.09,2.09h-12.8a2.1,2.1,0,0,1-2.09-2.09,2.1,2.1,0,0,1,2.09-2.09h12.8A2.1,2.1,0,0,1,86.436,349.126Z" transform="translate(-61.369 -309.074)" fill="#ff9811"/>
      <path id="Trazado_231" data-name="Trazado 231" d="M84.346,313.013h-12.8a2.1,2.1,0,0,1-2.09-2.09h0a2.1,2.1,0,0,1,2.09-2.09h12.8a2.1,2.1,0,0,1,2.09,2.09h0A2.1,2.1,0,0,1,84.346,313.013Z" transform="translate(-61.369 -275.051)" fill="#ffa733"/>
      <path id="Trazado_232" data-name="Trazado 232" d="M24.906,384.136a6.8,6.8,0,0,0-7.086-6.511H15.156a6.808,6.808,0,0,0,.582,13.6H17.82v0c.19.008.382.009.575,0a6.918,6.918,0,0,0,1.265-.173,6.808,6.808,0,0,0,5.247-6.382v-.008C24.914,384.49,24.914,384.314,24.906,384.136Z" transform="translate(-7.19 -336.312)" fill="#cc7400"/>
      <path id="Trazado_233" data-name="Trazado 233" d="M72.054,386.122v.008a6.808,6.808,0,0,1-5.247,6.382,6.811,6.811,0,0,1-5.24-6.337c0-.015,0-.03,0-.045v-.008a6.81,6.81,0,0,1,5.246-6.867,6.81,6.81,0,0,1,5.243,6.338C72.061,385.771,72.061,385.947,72.054,386.122Z" transform="translate(-54.337 -337.769)" fill="#ee8700"/>
      <path id="Trazado_234" data-name="Trazado 234" d="M49.581,18.307H45.544V10.362a5.16,5.16,0,0,0-1.426-3.556l-2.609-2.73C39.295,1.8,39.015,1.151,37.7.511A5.159,5.159,0,0,0,35.463,0H16.409a5.153,5.153,0,0,0-5.147,5.147V32.9H10.176a2.968,2.968,0,0,0-2.107,5.059,2.959,2.959,0,0,0-.862,2.09,3.046,3.046,0,0,0,.058.587,7.485,7.485,0,0,0,1.07,14.925l14.642-.005A2.968,2.968,0,0,0,25.085,50.5a2.954,2.954,0,0,0,.858-1.942h1.114v.595a6.862,6.862,0,0,0,6.855,6.855h15.67a6.862,6.862,0,0,0,6.855-6.855V25.162A6.862,6.862,0,0,0,49.581,18.307ZM38.2,3.111l4.38,4.631s0,0,0,0h0l0,.005h0a.019.019,0,0,0,.007.007l0,0s0,0,0,0,0,0,0,0,0,0,0,0H38.2V3.111ZM10.176,34.663h12.8a1.21,1.21,0,1,1,0,2.419h-12.8a1.21,1.21,0,1,1,0-2.419Zm0,4.179h12.8a1.21,1.21,0,1,1,0,2.419H14.135a7.166,7.166,0,0,0-1.114-.4,7.417,7.417,0,0,0-1.76-.258c-.173,0-.345,0-.518,0H9.1a1.189,1.189,0,0,1-.135-.553A1.212,1.212,0,0,1,10.176,38.842Zm14.011,5.389a1.211,1.211,0,0,1-1.21,1.21H18.054a7.4,7.4,0,0,0-1.493-2.419h6.417A1.212,1.212,0,0,1,24.187,44.231ZM5.9,42.651A7.592,7.592,0,0,0,4.51,44.429H3.485A5.811,5.811,0,0,1,5.9,42.651ZM2.549,46.078H3.831a7.6,7.6,0,0,0-.24,1.319H2.237A5.781,5.781,0,0,1,2.549,46.078Zm.142,4.361a5.771,5.771,0,0,1-.413-1.392H3.622a6.639,6.639,0,0,0,.314,1.392Zm1.1,1.65c.54,0,.853,0,.927,0A7.429,7.429,0,0,0,5.9,53.518,5.812,5.812,0,0,1,3.789,52.088ZM11.3,53.915a5.836,5.836,0,1,1,3.7-10.13A5.831,5.831,0,0,1,11.3,53.915ZM22.978,53.8h-7.1a7.537,7.537,0,0,0,1.89-2.419h5.211a1.21,1.21,0,0,1,0,2.419Zm1.2-5.241a1.21,1.21,0,0,1-1.2,1.062h-4.6a7.559,7.559,0,0,0,.107-2.419h4.5A1.211,1.211,0,0,1,24.177,48.557Zm2.879-1.76H25.468a2.919,2.919,0,0,0-.384-.477,2.963,2.963,0,0,0,0-4.179,2.963,2.963,0,0,0,0-4.179A2.972,2.972,0,0,0,22.977,32.9H13.021V5.147A3.392,3.392,0,0,1,16.409,1.76H36.437V8.652a.88.88,0,0,0,.88.88H43.68c.184.713.07.477.1,8.775H33.911a6.862,6.862,0,0,0-6.855,6.855V46.8Zm27.73,2.355a5.211,5.211,0,0,1-5.205,5.205H33.912a5.212,5.212,0,0,1-5.205-5.205V25.162a5.212,5.212,0,0,1,5.205-5.205h15.67a5.211,5.211,0,0,1,5.205,5.205v23.99Z"/>
      <path id="Trazado_235" data-name="Trazado 235" d="M286.519,206.446h-2.992a1.123,1.123,0,0,1-1.12-1.12v-3.019a1.123,1.123,0,0,1,1.12-1.12h15.553a1.121,1.121,0,0,1,1.12,1.12v3.019a1.121,1.121,0,0,1-1.12,1.12h-9a.825.825,0,1,0,0,1.65h9a2.772,2.772,0,0,0,2.769-2.769v-3.019a2.772,2.772,0,0,0-2.769-2.769H283.526a2.769,2.769,0,0,0-2.769,2.769v3.019a2.769,2.769,0,0,0,2.769,2.769h2.992a.825.825,0,1,0,0-1.65Z" transform="translate(-249.556 -177.711)"/>
      <path id="Trazado_236" data-name="Trazado 236" d="M282.484,364.7H285.3a1.728,1.728,0,0,0,1.727-1.727v-2.818a1.728,1.728,0,0,0-1.727-1.727h-2.819a1.729,1.729,0,0,0-1.727,1.727v2.818A1.729,1.729,0,0,0,282.484,364.7Zm-.077-4.544a.077.077,0,0,1,.077-.077H285.3a.077.077,0,0,1,.077.077v2.818a.077.077,0,0,1-.077.077h-2.819a.077.077,0,0,1-.077-.077Z" transform="translate(-249.556 -319.221)"/>
      <path id="Trazado_237" data-name="Trazado 237" d="M421.6,291.068h-2.818a1.728,1.728,0,0,0-1.727,1.727v2.818a1.728,1.728,0,0,0,1.727,1.727H421.6a1.728,1.728,0,0,0,1.727-1.727v-2.818A1.728,1.728,0,0,0,421.6,291.068Zm.077,4.544a.077.077,0,0,1-.077.077h-2.818a.077.077,0,0,1-.077-.077c.034-2.788-.072-2.895.077-2.895H421.6a.077.077,0,0,1,.077.077Z" transform="translate(-370.946 -259.228)"/>
      <path id="Trazado_238" data-name="Trazado 238" d="M282.484,297.339H285.3a1.728,1.728,0,0,0,1.727-1.727v-2.818a1.728,1.728,0,0,0-1.727-1.727h-2.819a1.729,1.729,0,0,0-1.727,1.727v2.818A1.729,1.729,0,0,0,282.484,297.339Zm-.077-4.544a.077.077,0,0,1,.077-.077H285.3a.077.077,0,0,1,.077.077v2.818a.077.077,0,0,1-.077.077h-2.819a.077.077,0,0,1-.077-.077Z" transform="translate(-249.556 -259.229)"/>
      <path id="Trazado_239" data-name="Trazado 239" d="M286.571,423.073a1.725,1.725,0,0,0-1.292-.582H282.46a1.721,1.721,0,0,0-1.291.582,2.359,2.359,0,0,0-.435,1.76v2.2a1.729,1.729,0,0,0,1.727,1.727h2.819a1.728,1.728,0,0,0,1.727-1.727v-2.2A2.379,2.379,0,0,0,286.571,423.073Zm-1.292,4.039c-2.785-.034-2.9.071-2.9-.077,0-2.984-.033-2.895.077-2.895h2.819c.135,0,.052.188.077.692A11.727,11.727,0,0,1,285.278,427.112Z" transform="translate(-249.532 -376.275)"/>
      <path id="Trazado_240" data-name="Trazado 240" d="M421.162,358.428h-1.942a2.167,2.167,0,0,0-2.164,2.164v8.751a2.366,2.366,0,0,0,2.362,2.363h1.546a2.365,2.365,0,0,0,2.362-2.363v-8.751A2.167,2.167,0,0,0,421.162,358.428Zm.515,10.915a.713.713,0,0,1-.713.714h-1.546a.714.714,0,0,1-.713-.714v-8.751a.515.515,0,0,1,.515-.515h1.942a.515.515,0,0,1,.515.515v8.751Z" transform="translate(-370.945 -319.22)"/>
      <path id="Trazado_241" data-name="Trazado 241" d="M166.2,172.948h0c-1.006-.369-1.732-.636-1.732-1.568,0-.849.564-1.28,1.676-1.28,1.181,0,1.5.52,1.914.52a.792.792,0,0,0,.7-.813c0-.687-1.121-1.028-2.123-1.118v-.62a.782.782,0,1,0-1.563,0v.718a2.556,2.556,0,0,0-2.123,2.674c0,1.92,1.413,2.451,2.549,2.878,1.112.418,1.991.748,1.991,2.018,0,1.049-.582,1.58-1.731,1.58-1.681,0-1.7-1.135-2.338-1.135a.825.825,0,0,0-.717.813c0,.65.968,1.5,2.369,1.726v.6a.782.782,0,0,0,1.563,0v-.615a2.824,2.824,0,0,0,2.369-3.05C169.008,173.979,167.452,173.407,166.2,172.948Z" transform="translate(-144.42 -148.989)"/>
      <path id="Trazado_242" data-name="Trazado 242" d="M353.022,422.491H350.2a1.725,1.725,0,0,0-1.292.582,2.368,2.368,0,0,0-.434,1.76v2.2a1.728,1.728,0,0,0,1.727,1.727h2.819a1.728,1.728,0,0,0,1.726-1.727v-2.819a1.728,1.728,0,0,0-1.726-1.725Zm0,4.621c-2.785-.034-2.9.071-2.9-.077v-2.819a.077.077,0,0,1,.077-.076h2.819a.076.076,0,0,1,.076.076C353.065,427.008,353.168,427.112,353.022,427.112Z" transform="translate(-309.866 -376.275)"/>
      <path id="Trazado_243" data-name="Trazado 243" d="M353.044,291.068h-2.819a1.728,1.728,0,0,0-1.727,1.727v2.818a1.728,1.728,0,0,0,1.727,1.727h2.819a1.7,1.7,0,0,0,.628-.119,1.729,1.729,0,0,0,1.1-1.608v-2.818A1.729,1.729,0,0,0,353.044,291.068Zm.076,4.544a.076.076,0,0,1-.076.077h-2.819a.077.077,0,0,1-.077-.077v-2.818c0-.148.1-.044,2.9-.077a.076.076,0,0,1,.076.077v2.818Z" transform="translate(-309.888 -259.228)"/>
      <path id="Trazado_244" data-name="Trazado 244" d="M353.672,358.547a1.7,1.7,0,0,0-.628-.119h-2.819a1.728,1.728,0,0,0-1.727,1.727v2.818a1.728,1.728,0,0,0,1.727,1.727h2.819a1.728,1.728,0,0,0,1.726-1.727v-2.818A1.728,1.728,0,0,0,353.672,358.547Zm-.552,4.425a.076.076,0,0,1-.076.077h-2.819a.077.077,0,0,1-.077-.077v-2.818a.077.077,0,0,1,.077-.077h2.819a.076.076,0,0,1,.076.077Z" transform="translate(-309.888 -319.22)"/>
      <path id="Trazado_245" data-name="Trazado 245" d="M320.872,104.692h2.072a.825.825,0,1,0,0-1.65h-2.072a.825.825,0,1,0,0,1.65Z" transform="translate(-284.548 -91.77)"/>
      <path id="Trazado_246" data-name="Trazado 246" d="M156.995,104.692h14.627a.825.825,0,1,0,0-1.65H156.995a.825.825,0,0,0,0,1.65Z" transform="translate(-138.598 -91.77)"/>
      <path id="Trazado_247" data-name="Trazado 247" d="M159.617,142.122a.825.825,0,1,0,0-1.65h-2.622a.825.825,0,0,0,0,1.65Z" transform="translate(-138.598 -125.106)"/>
      <path id="Trazado_248" data-name="Trazado 248" d="M226.026,141.3a.825.825,0,0,0-.825-.825H211.124a.825.825,0,0,0,0,1.65H225.2A.825.825,0,0,0,226.026,141.3Z" transform="translate(-186.806 -125.106)"/>
      <path id="Trazado_249" data-name="Trazado 249" d="M79.16,401.166c0-.207.076-.267.148-.306a1.417,1.417,0,0,1,1.2.081.943.943,0,0,0,.446.136c.814,0,1.457-1.512-.486-1.846v-.052a.836.836,0,1,0-1.672,0v.159a1.875,1.875,0,0,0-1.275,1.878c0,1.407,1.022,1.791,1.768,2.071.712.267.958.384.958.869,0,.3-.082.583-.673.583-.862,0-.759-.681-1.4-.681a.862.862,0,0,0-.8.854c0,.571.594,1.114,1.423,1.334v.063a.836.836,0,1,0,1.672,0v-.084a2.066,2.066,0,0,0,1.423-2.117C81.887,401.6,79.16,401.975,79.16,401.166Z" transform="translate(-68.417 -354.768)"/>
    </g>
  </g>
</svg>
