<svg xmlns="http://www.w3.org/2000/svg" xmlns:xlink="http://www.w3.org/1999/xlink" width="70" height="60" viewBox="0 0 70 60">
  <defs>
    <clipPath id="clip-legal">
      <rect width="70" height="60"/>
    </clipPath>
  </defs>
  <g id="legal" clip-path="url(#clip-legal)">
    <g id="ley" transform="translate(5 -9.168)">
      <g id="Grupo_9" data-name="Grupo 9" transform="translate(0.863 12.033)">
        <g id="Grupo_7" data-name="Grupo 7">
          <path id="Trazado_84" data-name="Trazado 84" d="M264.582,393.652h-21.47a2.608,2.608,0,0,0-2.608,2.608v4.731H267.19V396.26A2.608,2.608,0,0,0,264.582,393.652Z" transform="translate(-213.622 -350.393)" fill="#f9ef63"/>
          <path id="Trazado_85" data-name="Trazado 85" d="M248.824,393.649a2.609,2.609,0,0,0-2.609,2.609v4.731H240.5v-4.731a2.608,2.608,0,0,1,2.607-2.609Z" transform="translate(-213.621 -350.39)" fill="#ffd064"/>
          <g id="Grupo_5" data-name="Grupo 5">
            <path id="Trazado_86" data-name="Trazado 86" d="M8.478,229.646a3.4,3.4,0,0,1,0-4.8l13.285-13.285,4.8,4.8L13.282,229.646A3.4,3.4,0,0,1,8.478,229.646Z" transform="translate(-7.483 -189.304)" fill="#aa8080"/>
            <path id="Trazado_87" data-name="Trazado 87" d="M9.708,230.427a3.36,3.36,0,0,1-1.229-.786,3.4,3.4,0,0,1,0-4.8l13.286-13.286,2.014,2.014L10.493,226.852a3.394,3.394,0,0,0-.786,3.575Z" transform="translate(-7.484 -189.3)" fill="#9d6b6b"/>
            <path id="Trazado_88" data-name="Trazado 88" d="M0,0H23.395V15.905H0Z" transform="translate(21.128 3.664) rotate(45)" fill="#aa8080"/>
            <path id="Trazado_89" data-name="Trazado 89" d="M0,0H4.324V15.905H0Z" transform="translate(34.612 17.146) rotate(45)" fill="#9d6b6b"/>
            <path id="Trazado_90" data-name="Trazado 90" d="M0,0H23.395V4.87H0Z" transform="translate(13.326 11.466) rotate(45)" fill="#9d6b6b"/>
            <path id="Trazado_91" data-name="Trazado 91" d="M62.238,35.054a3.011,3.011,0,0,1,0-4.258L73.485,19.549a3.011,3.011,0,0,1,4.258,4.258L66.5,35.054A3.011,3.011,0,0,1,62.238,35.054Z" transform="translate(-55.141 -18.667)" fill="#aa8080"/>
            <path id="Trazado_92" data-name="Trazado 92" d="M71.518,84.525l-5.023,5.023a3.011,3.011,0,0,1-4.259-4.259l5.023-5.023a3.011,3.011,0,0,0,4.259,4.259Z" transform="translate(-55.14 -73.16)" fill="#9d6b6b"/>
            <path id="Trazado_93" data-name="Trazado 93" d="M216.991,189.807a3.011,3.011,0,0,1,0-4.259L228.238,174.3a3.011,3.011,0,1,1,4.258,4.259L221.25,189.807A3.011,3.011,0,0,1,216.991,189.807Z" transform="translate(-192.042 -155.568)" fill="#aa8080"/>
            <path id="Trazado_94" data-name="Trazado 94" d="M226.271,239.278l-5.023,5.023a3.011,3.011,0,0,1-4.259-4.259l5.023-5.023a3.011,3.011,0,1,0,4.259,4.259Z" transform="translate(-192.04 -210.06)" fill="#9d6b6b"/>
            <path id="Trazado_95" data-name="Trazado 95" d="M111.619,196.507l-6.388-6.388a2.2,2.2,0,0,1,3.112-3.112l6.388,6.388a2.2,2.2,0,0,1-3.112,3.112Z" transform="translate(-93.384 -167.017)" fill="#aa8080"/>
            <path id="Trazado_96" data-name="Trazado 96" d="M108.347,193.227l-3.113-3.113A2.2,2.2,0,1,1,108.346,187l3.113,3.113a2.2,2.2,0,1,0-3.112,3.112Z" transform="translate(-93.387 -167.012)" fill="#9d6b6b"/>
          </g>
          <path id="Trazado_97" data-name="Trazado 97" d="M238.754,435.853H211.162a3.314,3.314,0,0,0,0,6.629h27.592a3.314,3.314,0,1,0,0-6.629Z" transform="translate(-184.733 -387.725)" fill="#aa8080"/>
          <path id="Trazado_98" data-name="Trazado 98" d="M216.85,441.512a3.3,3.3,0,0,0,2.344.971h-8.03a3.314,3.314,0,1,1,0-6.629h8.03a3.314,3.314,0,0,0-2.344,5.658Z" transform="translate(-184.734 -387.726)" fill="#9d6b6b"/>
          <g id="Grupo_6" data-name="Grupo 6" transform="translate(40.225 25.67)">
            <path id="Trazado_99" data-name="Trazado 99" d="M357.229,246.267l.206.055a1.43,1.43,0,0,0,1.72-.923l.743-2.189a1.43,1.43,0,0,0-.988-1.842l-.512-.136a1.43,1.43,0,0,0-1.77,1.112l-.437,2.27A1.43,1.43,0,0,0,357.229,246.267Z" transform="translate(-356.165 -241.185)" fill="#dce6fd"/>
            <path id="Trazado_100" data-name="Trazado 100" d="M402.6,276.7l.151.15a1.43,1.43,0,0,0,1.951.061l1.738-1.525a1.43,1.43,0,0,0,.065-2.089l-.376-.373a1.43,1.43,0,0,0-2.089.078l-1.514,1.747A1.43,1.43,0,0,0,402.6,276.7Z" transform="translate(-396.872 -268.892)" fill="#dce6fd"/>
            <path id="Trazado_101" data-name="Trazado 101" d="M430.2,328.983l.056.206a1.43,1.43,0,0,0,1.659,1.028l2.268-.451a1.43,1.43,0,0,0,1.1-1.777l-.139-.511a1.43,1.43,0,0,0-1.848-.977l-2.185.756A1.43,1.43,0,0,0,430.2,328.983Z" transform="translate(-421.614 -316.589)" fill="#dce6fd"/>
          </g>
        </g>
        <path id="Trazado_102" data-name="Trazado 102" d="M364.5,41.207a3.294,3.294,0,0,1-2.3-.938l-5.039-4.925a3.293,3.293,0,1,1,4.6-4.711l1.966,1.921,3.383-6.034a3.293,3.293,0,0,1,5.745,3.221l-5.484,9.782a3.293,3.293,0,0,1-2.873,1.683Z" transform="translate(-315.94 -24.126)" fill="#b3e59f"/>
        <g id="Grupo_8" data-name="Grupo 8" transform="translate(40.225 0.712)">
          <path id="Trazado_103" data-name="Trazado 103" d="M424.077,34.807l4.645-8.286a3.276,3.276,0,0,1,1.056-1.134c-.067-.044-.133-.089-.2-.128a3.293,3.293,0,0,0-4.483,1.262l-3.383,6.034Z" transform="translate(-414.147 -24.838)" fill="#95d6a4"/>
          <path id="Trazado_104" data-name="Trazado 104" d="M365.828,77.528,360.788,72.6a3.29,3.29,0,0,1,.486-5.1,3.293,3.293,0,0,0-4.117,5.1l5.039,4.925a3.29,3.29,0,0,0,4.117.391A3.3,3.3,0,0,1,365.828,77.528Z" transform="translate(-356.165 -62.096)" fill="#95d6a4"/>
        </g>
      </g>
      <g id="Grupo_10" data-name="Grupo 10" transform="translate(0 11.168)">
        <path id="Trazado_105" data-name="Trazado 105" d="M24.659,42.084a3.876,3.876,0,0,0,6.024,4.8L41.929,35.638a3.876,3.876,0,0,0-4.8-6.024L24.62,17.1a3.877,3.877,0,0,0-6.025-4.8l-.931.931a.865.865,0,0,0,1.224,1.224l.931-.931a2.146,2.146,0,0,1,3.036,3.033l0,0L11.606,27.808l0,0a2.146,2.146,0,0,1-3.033-3.037l7.87-7.87a.865.865,0,0,0-1.224-1.224l-7.87,7.87a3.876,3.876,0,0,0,4.8,6.025l1.11,1.11A3.065,3.065,0,0,0,12.1,35.747l.18.18L1.246,46.959a4.262,4.262,0,0,0,6.028,6.028L18.305,41.955l.18.18a3.065,3.065,0,0,0,5.063-1.161Zm16.047-10.7a2.149,2.149,0,0,1,0,3.035L29.459,45.661a2.146,2.146,0,1,1-3.035-3.035L37.671,31.38a2.148,2.148,0,0,1,3.035,0ZM25.812,40.791,13.442,28.42,23.465,18.4,35.836,30.768ZM6.05,51.763A2.532,2.532,0,0,1,2.47,48.182L13.5,37.151l3.581,3.581ZM21.6,40.911a1.337,1.337,0,0,1-1.888,0l-6.388-6.388a1.335,1.335,0,0,1,1.888-1.888L21.6,39.023A1.337,1.337,0,0,1,21.6,40.911Z" transform="translate(0 -11.168)"/>
        <path id="Trazado_106" data-name="Trazado 106" d="M232.531,391.039v-1.416a3.477,3.477,0,0,0-3.472-3.474H212.952a.865.865,0,1,0,0,1.73h16.107a1.745,1.745,0,0,1,1.742,1.743v1.395H205.845v-1.395a1.745,1.745,0,0,1,1.743-1.743H209.5a.865.865,0,1,0,0-1.73h-1.912a3.477,3.477,0,0,0-3.474,3.474v1.416a4.18,4.18,0,0,0,.413,8.339h27.592a4.18,4.18,0,0,0,.412-8.339Zm-.412,6.608H204.528a2.449,2.449,0,0,1,0-4.9h27.592a2.449,2.449,0,0,1,0,4.9Z" transform="translate(-177.235 -342.891)"/>
        <path id="Trazado_107" data-name="Trazado 107" d="M353.935,235.037A2.3,2.3,0,0,0,352.5,233.9l-.512-.136a2.3,2.3,0,0,0-2.841,1.785l-.437,2.27a2.3,2.3,0,0,0,1.666,2.653h0l.206.055a2.277,2.277,0,0,0,.583.076,2.3,2.3,0,0,0,2.177-1.557l.743-2.189A2.3,2.3,0,0,0,353.935,235.037Zm-1.488,1.266-.743,2.189a.566.566,0,0,1-.679.364l-.206-.054a.566.566,0,0,1-.41-.652l.437-2.27a.565.565,0,0,1,.7-.439l.512.136a.564.564,0,0,1,.39.727Z" transform="translate(-308.445 -208.021)"/>
        <path id="Trazado_108" data-name="Trazado 108" d="M395.376,270.677l.151.15a2.3,2.3,0,0,0,3.131.1L400.4,269.4a2.3,2.3,0,0,0,.1-3.353l-.376-.373a2.295,2.295,0,0,0-3.353.125l-1.514,1.748a2.3,2.3,0,0,0,.117,3.131Zm1.191-2,1.514-1.747a.564.564,0,0,1,.825-.031l.376.373a.565.565,0,0,1-.026.825l-1.738,1.524a.566.566,0,0,1-.77-.024l-.151-.15A.567.567,0,0,1,396.568,268.679Z" transform="translate(-349.168 -235.723)"/>
        <path id="Trazado_109" data-name="Trazado 109" d="M422.79,322.79a2.3,2.3,0,0,0,2.663,1.65l2.268-.451a2.3,2.3,0,0,0,1.767-2.852l-.139-.511a2.3,2.3,0,0,0-2.966-1.568l-2.185.756a2.3,2.3,0,0,0-1.464,2.77Zm1.974-1.34,2.185-.757a.561.561,0,0,1,.185-.032.57.57,0,0,1,.264.066.561.561,0,0,1,.281.351l.139.511a.565.565,0,0,1-.435.7l-2.268.451a.566.566,0,0,1-.655-.406l-.056-.206A.566.566,0,0,1,424.765,321.45Z" transform="translate(-373.896 -283.428)"/>
        <path id="Trazado_110" data-name="Trazado 110" d="M354.957,34.263a4.136,4.136,0,0,0,2.906,1.184,4.159,4.159,0,0,0,3.628-2.125l5.484-9.782a4.158,4.158,0,1,0-7.255-4.067l-2.831,5.049L355.73,23.39a4.158,4.158,0,1,0-5.813,5.948Zm-3.869-9.6a2.412,2.412,0,0,1,1.709-.731h.029a2.411,2.411,0,0,1,1.7.692l1.966,1.921a.865.865,0,0,0,1.359-.2l3.383-6.034a2.428,2.428,0,1,1,4.236,2.375l-5.484,9.782a2.428,2.428,0,0,1-2.118,1.241,2.414,2.414,0,0,1-1.7-.692L351.127,28.1a2.428,2.428,0,0,1-.039-3.434Z" transform="translate(-308.442 -16.636)"/>
      </g>
    </g>
  </g>
</svg>
