<svg xmlns="http://www.w3.org/2000/svg" xmlns:xlink="http://www.w3.org/1999/xlink" width="70" height="60" viewBox="0 0 70 60">
  <defs>
    <clipPath id="clip-normas">
      <rect width="70" height="60"/>
    </clipPath>
  </defs>
  <g id="normas" clip-path="url(#clip-normas)">
    <g id="documento" transform="translate(8 3)">
      <path id="Trazado_27" data-name="Trazado 27" d="M0,37.819A26.578,26.578,0,1,1,45,56.972,171.6,171.6,0,0,0,26.578,56a172.045,172.045,0,0,0-17.662.894,1.612,1.612,0,0,1-1.318-.47A26.49,26.49,0,0,1,0,37.819Zm0,0" transform="translate(0 -10.049)" fill="#e659a9"/>
      <path id="Trazado_28" data-name="Trazado 28" d="M109.5,4.339V46.368a26.573,26.573,0,0,1-37.968,0V4.339A4.339,4.339,0,0,1,75.874,0h29.29A4.339,4.339,0,0,1,109.5,4.339Zm0,0" transform="translate(-63.942)" fill="#fdd194"/>
      <path id="Trazado_29" data-name="Trazado 29" d="M74.613,49.061a26.775,26.775,0,0,1-3.078-2.692V4.339A4.339,4.339,0,0,1,75.874,0h3.078a4.339,4.339,0,0,0-4.339,4.339Zm0,0" transform="translate(-63.942)" fill="#fdc273"/>
      <path id="Trazado_30" data-name="Trazado 30" d="M152.443,133.4v1.085a.543.543,0,0,1-.542.542H132.374a.543.543,0,0,1-.542-.542V133.4a.542.542,0,0,1,.542-.542H151.9A.542.542,0,0,1,152.443,133.4Zm-7.051,3.8H132.374a.542.542,0,0,0-.542.542v1.085a.543.543,0,0,0,.542.542h13.018a.543.543,0,0,0,.542-.542v-1.085A.542.542,0,0,0,145.392,137.195Zm0,0" transform="translate(-117.838 -118.753)" fill="#fd7d43"/>
      <path id="Trazado_31" data-name="Trazado 31" d="M156.782,235.593v1.085a.543.543,0,0,1-.542.542H132.374a.543.543,0,0,1-.542-.542v-1.085a.543.543,0,0,1,.542-.542H156.24A.543.543,0,0,1,156.782,235.593Zm-3.8,3.8H132.374a.542.542,0,0,0-.542.542v1.085a.543.543,0,0,0,.542.542h20.611a.543.543,0,0,0,.542-.542v-1.085A.542.542,0,0,0,152.986,239.39Zm-7.593,4.339H132.374a.543.543,0,0,0-.542.543v1.085a.543.543,0,0,0,.542.542h13.018a.543.543,0,0,0,.542-.542v-1.085A.543.543,0,0,0,145.392,243.729Zm-12.475,10.848A1.085,1.085,0,1,0,134,255.662,1.085,1.085,0,0,0,132.917,254.577Zm3.255,0a1.085,1.085,0,1,0,1.085,1.085A1.085,1.085,0,0,0,136.171,254.577Zm3.255,0a1.085,1.085,0,1,0,1.085,1.085A1.085,1.085,0,0,0,139.426,254.577Zm0,0" transform="translate(-117.838 -210.1)" fill="#fc9368"/>
      <path id="Trazado_32" data-name="Trazado 32" d="M62.181,5V8.679A1.085,1.085,0,0,1,61.1,9.763H30.722a1.085,1.085,0,0,1-1.085-1.085V5a5,5,0,0,1,5-5H67.184a5,5,0,0,0-5,5Zm0,0" transform="translate(-26.491 0)" fill="#fcf498"/>
      <path id="Trazado_33" data-name="Trazado 33" d="M98.721,5V8.679a1.085,1.085,0,0,1-1.085,1.085H70.516V5a5,5,0,0,1,5-5h28.2a5,5,0,0,0-5,5Zm0,0" transform="translate(-63.031 0)" fill="#fdf7bd"/>
      <path id="Trazado_34" data-name="Trazado 34" d="M305.161,313.293a11.137,11.137,0,1,1-11.137-11.137A11.137,11.137,0,0,1,305.161,313.293Zm0,0" transform="translate(-252.859 -270.083)" fill="#08e092"/>
      <path id="Trazado_35" data-name="Trazado 35" d="M303.459,333.545a11.138,11.138,0,1,1-15.354-15.354,11.138,11.138,0,0,0,15.354,15.354Zm0,0" transform="translate(-252.858 -284.416)" fill="#04d481"/>
      <path id="Trazado_36" data-name="Trazado 36" d="M332.074,333.564l-11.615,11.615a1.628,1.628,0,0,1-2.3,0l-5.106-5.106a1.627,1.627,0,0,1,0-2.3l.767-.767a1.627,1.627,0,0,1,2.3,0l2.805,2.805a.542.542,0,0,0,.767,0l9.314-9.314a1.628,1.628,0,0,1,2.3,0l.767.767a1.628,1.628,0,0,1,0,2.3Zm0,0" transform="translate(-279.395 -294.988)" fill="#fdf7bd"/>
      <path id="Trazado_37" data-name="Trazado 37" d="M344.015,331.263a1.628,1.628,0,0,1,0,2.3l-10.962,10.962a11.16,11.16,0,0,1-7.119-7.67,1.627,1.627,0,0,1,2.127.149l2.805,2.805a.542.542,0,0,0,.767,0l9.314-9.314a1.628,1.628,0,0,1,2.3,0Zm0,0" transform="translate(-291.336 -294.988)" fill="#fff5f5"/>
    </g>
  </g>
</svg>
