<svg xmlns="http://www.w3.org/2000/svg" xmlns:xlink="http://www.w3.org/1999/xlink" width="70" height="60" viewBox="0 0 70 60">
  <defs>
    <clipPath id="clip-normas_1">
      <rect width="70" height="60"/>
    </clipPath>
  </defs>
  <g id="normas_1" data-name="normas – 1" clip-path="url(#clip-normas_1)">
    <g id="dosier" transform="translate(-39.083 3.203)">
      <path id="Trazado_193" data-name="Trazado 193" d="M148.247,53.148v-26H115.312v35" transform="translate(-55.448 -24.345)" fill="#d6c8b0"/>
      <path id="Trazado_194" data-name="Trazado 194" d="M119.56,26V0H86.625V35" transform="translate(-29.722)" fill="#f9eed7"/>
      <path id="Trazado_195" data-name="Trazado 195" d="M95.284,215.8V196.086a3.8,3.8,0,0,0-3.8-3.8H74.571a3.8,3.8,0,0,1-3.537-2.41l-.749-1.906a3.8,3.8,0,0,0-3.537-2.41H57.283a3.8,3.8,0,0,0-3.8,3.8V215.8a3.447,3.447,0,0,0,3.447,3.447H91.838A3.447,3.447,0,0,0,95.284,215.8Z" transform="translate(0 -166.409)" fill="#ffd15c"/>
      <path id="Trazado_196" data-name="Trazado 196" d="M55.733,215.8V189.359a3.8,3.8,0,0,1,3.8-3.8h-2.25a3.8,3.8,0,0,0-3.8,3.8V215.8a3.447,3.447,0,0,0,3.447,3.447h2.25A3.447,3.447,0,0,1,55.733,215.8Z" transform="translate(0 -166.408)" fill="#edbb4c"/>
      <circle id="Elipse_4" data-name="Elipse 4" cx="3.66" cy="3.66" r="3.66" transform="translate(61.623 4.619)" fill="#dbceba"/>
      <path id="Trazado_197" data-name="Trazado 197" d="M134.711,48.419a3.661,3.661,0,0,1,2.479-3.464,3.66,3.66,0,1,0,0,6.929A3.661,3.661,0,0,1,134.711,48.419Z" transform="translate(-70.726 -40.14)" fill="#d6c8b0"/>
      <path id="Trazado_198" data-name="Trazado 198" d="M132.347,119.355a3.66,3.66,0,1,1,7.321,0" transform="translate(-70.725 -103.755)" fill="#ff525d"/>
      <g id="Grupo_42" data-name="Grupo 42" transform="translate(72.91 4.821)">
        <path id="Trazado_199" data-name="Trazado 199" d="M254.28,48.4H242.567a.844.844,0,0,1,0-1.688H254.28a.844.844,0,1,1,0,1.688Z" transform="translate(-241.723 -46.717)" fill="#34abe0"/>
        <path id="Trazado_200" data-name="Trazado 200" d="M314.3,208.517h-4.807a.844.844,0,1,1,0-1.688H314.3a.844.844,0,1,1,0,1.688Z" transform="translate(-301.74 -190.305)" fill="#34abe0"/>
        <path id="Trazado_201" data-name="Trazado 201" d="M254.28,168.49H242.567a.844.844,0,0,1,0-1.688H254.28a.844.844,0,1,1,0,1.688Z" transform="translate(-241.723 -154.409)" fill="#34abe0"/>
        <path id="Trazado_202" data-name="Trazado 202" d="M254.28,88.433H242.567a.844.844,0,0,1,0-1.688H254.28a.844.844,0,1,1,0,1.688Z" transform="translate(-241.723 -82.614)" fill="#34abe0"/>
        <path id="Trazado_203" data-name="Trazado 203" d="M254.28,128.462H242.567a.844.844,0,0,1,0-1.688H254.28a.844.844,0,1,1,0,1.688Z" transform="translate(-241.723 -118.512)" fill="#34abe0"/>
      </g>
    </g>
  </g>
</svg>
