<?xml version="1.0" ?><svg height="48" id="svg6485" version="1.1" viewBox="0 0 48 48" width="48" xmlns="http://www.w3.org/2000/svg" xmlns:cc="http://creativecommons.org/ns#" xmlns:dc="http://purl.org/dc/elements/1.1/" xmlns:inkscape="http://www.inkscape.org/namespaces/inkscape" xmlns:rdf="http://www.w3.org/1999/02/22-rdf-syntax-ns#" xmlns:sodipodi="http://sodipodi.sourceforge.net/DTD/sodipodi-0.dtd" xmlns:svg="http://www.w3.org/2000/svg"><defs id="defs6487"/><g id="layer1" transform="translate(0,-1004.3622)"><text id="text4366" style="font-style:normal;font-weight:normal;font-size:11.25px;line-height:125%;font-family:Sans;letter-spacing:0px;word-spacing:0px;fill:#000000;fill-opacity:1;stroke:none;stroke-width:1px;stroke-linecap:butt;stroke-linejoin:miter;stroke-opacity:1" x="12" xml:space="preserve" y="1036.3622"><tspan id="tspan4368" x="12" y="1036.3622"/></text><g id="text4981" style="font-style:normal;font-variant:normal;font-weight:normal;font-stretch:normal;font-size:12.37186241px;line-height:125%;font-family:'Roboto Condensed';-inkscape-font-specification:'Roboto Condensed, ';letter-spacing:0px;word-spacing:0px;fill:#000000;fill-opacity:1;stroke:none;stroke-width:1px;stroke-linecap:butt;stroke-linejoin:miter;stroke-opacity:1" transform="scale(1.1477838,0.87124422)"/><g id="g6797"><g id="g5959" transform="translate(587.02794,259.17156)"><path d="m -563.02794,745.19064 c -13.25187,0 -24,10.74825 -24,24 0,13.2519 10.74813,24 24,24 13.25187,0 24,-10.7481 24,-24 0,-13.25175 -10.74813,-24 -24,-24 z m 0,1.5 c 12.42359,0 22.5,10.07655 22.5,22.5 0,12.4236 -10.07641,22.5 -22.5,22.5 -12.42359,0 -22.5,-10.0764 -22.5,-22.5 0,-12.42345 10.07641,-22.5 22.5,-22.5 z" id="path5817" style="color:#000000;font-style:normal;font-variant:normal;font-weight:normal;font-stretch:normal;font-size:medium;line-height:normal;font-family:sans-serif;text-indent:0;text-align:start;text-decoration:none;text-decoration-line:none;text-decoration-style:solid;text-decoration-color:#000000;letter-spacing:normal;word-spacing:normal;text-transform:none;direction:ltr;block-progression:tb;writing-mode:lr-tb;baseline-shift:baseline;text-anchor:start;white-space:normal;clip-rule:nonzero;display:inline;overflow:visible;visibility:visible;opacity:1;isolation:auto;mix-blend-mode:normal;color-interpolation:sRGB;color-interpolation-filters:linearRGB;solid-color:#000000;solid-opacity:1;fill:#ce4b85;fill-opacity:1;fill-rule:nonzero;stroke:none;stroke-width:0.99999994;stroke-linecap:round;stroke-linejoin:round;stroke-miterlimit:4;stroke-dasharray:none;stroke-dashoffset:0;stroke-opacity:1;color-rendering:auto;image-rendering:auto;shape-rendering:auto;text-rendering:auto;enable-background:accumulate"/><path d="m -563.02794,749.44059 c -10.90519,0 -19.75,8.84505 -19.75,19.75005 0,10.90515 8.84481,19.75005 19.75,19.75005 10.90519,0 19.75,-8.8449 19.75,-19.75005 0,-10.905 -8.84481,-19.75005 -19.75,-19.75005 z" id="path5819" style="color:#000000;font-style:normal;font-variant:normal;font-weight:normal;font-stretch:normal;font-size:medium;line-height:normal;font-family:sans-serif;text-indent:0;text-align:start;text-decoration:none;text-decoration-line:none;text-decoration-style:solid;text-decoration-color:#000000;letter-spacing:normal;word-spacing:normal;text-transform:none;direction:ltr;block-progression:tb;writing-mode:lr-tb;baseline-shift:baseline;text-anchor:start;white-space:normal;clip-rule:nonzero;display:inline;overflow:visible;visibility:visible;opacity:1;isolation:auto;mix-blend-mode:normal;color-interpolation:sRGB;color-interpolation-filters:linearRGB;solid-color:#000000;solid-opacity:1;fill:#ce4b85;fill-opacity:1;fill-rule:nonzero;stroke:none;stroke-width:0.99999994;stroke-linecap:round;stroke-linejoin:round;stroke-miterlimit:4;stroke-dasharray:none;stroke-dashoffset:0;stroke-opacity:1;color-rendering:auto;image-rendering:auto;shape-rendering:auto;text-rendering:auto;enable-background:accumulate"/><path d="m -563.02794,749.44059 c -10.90519,0 -19.75,8.84505 -19.75,19.75005 0,5.4579 2.21752,10.39755 5.798,13.9728 l 27.92477,-27.92475 c -3.57517,-3.5805 -8.51487,-5.7981 -13.97277,-5.7981 z" id="path5823" style="color:#000000;clip-rule:nonzero;display:inline;overflow:visible;visibility:visible;opacity:1;isolation:auto;mix-blend-mode:normal;color-interpolation:sRGB;color-interpolation-filters:linearRGB;solid-color:#000000;solid-opacity:1;fill:#c41c6c;fill-opacity:1;fill-rule:nonzero;stroke:none;stroke-width:1.5;stroke-linecap:butt;stroke-linejoin:miter;stroke-miterlimit:4;stroke-dasharray:none;stroke-dashoffset:0;stroke-opacity:1;color-rendering:auto;image-rendering:auto;shape-rendering:auto;text-rendering:auto;enable-background:accumulate"/></g><g id="g4850"><path d="m 18.5,9 c -0.276131,2.76e-5 -0.499972,0.2238691 -0.5,0.5 l 0,0.5 -4.5,0 c -0.276131,2.8e-5 -0.499972,0.223869 -0.5,0.5 l 0,24 c 4.43e-4,0.216326 0.13994,0.407838 0.345703,0.474609 0.01603,0.0054 0.03233,0.0099 0.04883,0.01367 0.03273,0.0072 0.0661,0.01116 0.09961,0.01172 l 0.0059,0 11.849609,0 c 0.826705,2.3259 3.044843,4 5.650391,4 3.307796,0 6,-2.6922 6,-6 0,-2.6055 -1.674199,-4.823591 -4,-5.650391 L 33,10.5 C 32.999972,10.223869 32.776131,10.000028 32.5,10 L 28,10 28,9.5 C 27.999972,9.2238691 27.776131,9.0000276 27.5,9 Z m 0.5,1 8,0 0,3 -8,0 z m -5,1 4,0 0,1 -2.5,0 c -0.276131,2.8e-5 -0.499972,0.223869 -0.5,0.5 l 0,20 c 4.43e-4,0.216326 0.13994,0.407838 0.345703,0.474609 0.01603,0.0054 0.03233,0.0099 0.04883,0.01367 0.03273,0.0072 0.0661,0.01116 0.09961,0.01172 L 15.5,33 25,33 c 0,0.3417 0.03664,0.6738 0.0918,1 L 14,34 Z m 14,0 4,0 0,16.089844 C 31.673973,27.034844 31.341428,27 31,27 L 31,12.5 C 30.999972,12.223869 30.776131,12.000028 30.5,12 L 28,12 Z m -12,2 2,0 0,0.5 c 4.43e-4,0.216326 0.13994,0.407838 0.345703,0.474609 0.01603,0.0054 0.03233,0.0099 0.04883,0.01367 0.03273,0.0072 0.0661,0.01116 0.09961,0.01172 L 18.5,14 27.464844,14 27.5,14 c 0.01692,8.6e-4 0.03386,8.6e-4 0.05078,0 0.01643,-0.0024 0.03272,-0.0057 0.04883,-0.0098 C 27.832673,13.942834 28.000103,13.737835 28,13.5 l 0,-0.5 2,0 0,14.089844 C 27.493053,27.513444 25.514837,29.4929 25.091797,32 L 16,32 Z m 1,3 0,2.001953 2,0 L 19,16 Z m 3,0.501953 0,1 9,0 0,-1 z m -3,2.5 0,2.001953 2,0 0,-2.001953 z m 3,0.501953 0,1 9,0 0,-1 z M 17,22 l 0,2.001953 2,0 L 19,22 Z m 3,0.501953 0,1 9,0 0,-1 z M 17,25 l 0,2.001953 2,0 L 19,25 Z m 3,0.501953 0,1 9,0 0,-1 z M 31,28 c 2.767356,0 5,2.2327 5,5 0,2.7674 -2.232644,5 -5,5 -2.767356,0 -5,-2.2326 -5,-5 0,-2.7673 2.232644,-5 5,-5 z m 1.542969,1.613281 -1.482422,2.390625 c -0.02018,-6.11e-4 -0.04037,-6.11e-4 -0.06055,0 -0.356284,9.82e-4 -0.685137,0.191449 -0.863281,0.5 l -2.136719,0 0,1 2.134766,0 c 0.178494,0.309154 0.508252,0.499714 0.865234,0.5 0.122197,-1.12e-4 0.243339,-0.02262 0.357422,-0.06641 l 2.417969,1.777344 0.591797,-0.804688 -2.38086,-1.753906 C 31.994969,33.104605 31.99954,33.052361 32,33 c -5.64e-4,-0.153934 -0.03666,-0.30566 -0.105469,-0.443359 l 1.498047,-2.416016 z" id="path5190" style="color:#000000;font-style:normal;font-variant:normal;font-weight:normal;font-stretch:normal;font-size:medium;line-height:normal;font-family:sans-serif;text-indent:0;text-align:start;text-decoration:none;text-decoration-line:none;text-decoration-style:solid;text-decoration-color:#000000;letter-spacing:normal;word-spacing:normal;text-transform:none;direction:ltr;block-progression:tb;writing-mode:lr-tb;baseline-shift:baseline;text-anchor:start;white-space:normal;clip-rule:nonzero;display:inline;overflow:visible;visibility:visible;opacity:1;isolation:auto;mix-blend-mode:normal;color-interpolation:sRGB;color-interpolation-filters:linearRGB;solid-color:#000000;solid-opacity:1;fill:#ffffff;fill-opacity:1;fill-rule:nonzero;stroke:none;stroke-width:1;stroke-linecap:butt;stroke-linejoin:round;stroke-miterlimit:4;stroke-dasharray:none;stroke-dashoffset:0;stroke-opacity:1;color-rendering:auto;image-rendering:auto;shape-rendering:auto;text-rendering:auto;enable-background:accumulate" transform="translate(0,1004.3622)"/></g></g></g></svg>